<svg xmlns="http://www.w3.org/2000/svg" width="80" height="80" fill="none" viewBox="0 0 80 80"><g opacity=".747"><rect width="80" height="80" fill="#232586" rx="40" style="mix-blend-mode:multiply"/></g><path fill="#fff" fill-rule="evenodd" d="M41.8276 17.5038C42.5307 18.1821 42.9915 19.2408 42.9915 20.4597V21.033C43.4761 20.8087 43.9881 20.7106 44.5045 20.7106C45.3912 20.7106 46.2938 21.0147 46.9986 21.6959C47.7034 22.377 48.1625 23.4462 48.1625 24.6698V27.0166C48.6472 26.792 49.1756 26.6942 49.6922 26.6942C50.5761 26.6942 51.4665 27.0011 52.1696 27.6795C52.8728 28.3579 53.3335 29.4165 53.3335 30.6355V46.974C53.3335 51.9358 51.5878 55.8004 48.9439 58.3501C46.3002 60.8997 42.8049 62.1481 39.3335 62.1481C35.8622 62.1481 32.3835 60.8997 29.7397 58.3501C27.0959 55.8004 25.3335 51.9358 25.3335 46.974V36.8879C25.3335 35.6678 25.8089 34.6097 26.5141 33.9319C27.2192 33.254 28.1061 32.9465 28.9914 32.9465C29.509 32.9465 30.0356 33.0447 30.5212 33.269V24.6519C30.5212 23.4329 30.9819 22.3742 31.6851 21.6959C32.3882 21.0175 33.2952 20.6926 34.1791 20.6926C34.6971 20.6926 35.2065 20.8071 35.6922 21.033V20.4597C35.6922 19.2408 36.1529 18.1821 36.8561 17.5038C37.5592 16.8254 38.4496 16.5184 39.3335 16.5184C40.2449 16.5394 41.2467 16.9583 41.8276 17.5038H41.8276ZM39.3335 18.8115C38.926 18.8115 38.5348 18.9497 38.2694 19.2057C38.004 19.4617 37.8205 19.8099 37.8205 20.4597V38.751C37.8284 39.3567 37.3186 39.9139 36.7563 39.9139C36.1941 39.9139 35.6843 39.3567 35.6922 38.751V24.7414C35.7305 24.1924 35.4655 23.7561 35.2432 23.3978C34.9779 23.1418 34.5866 22.9858 34.1791 22.9858C33.7716 22.9858 33.3638 23.1418 33.0984 23.3978C32.833 23.6538 32.6494 24.002 32.6494 24.6519C32.6494 31.9914 32.6494 39.3158 32.6494 46.6515C32.6574 47.2573 32.1475 47.8145 31.5853 47.8145C31.023 47.8145 30.5132 47.2573 30.5212 46.6515V36.9953C30.5621 36.4459 30.2975 36.0071 30.0723 35.6517C29.8054 35.3952 29.4022 35.2397 28.9914 35.2397C28.5807 35.2397 28.1943 35.3952 27.9273 35.6517C27.6604 35.9082 27.4618 36.239 27.4618 36.8879V46.974C27.4618 51.3664 28.947 54.5207 31.153 56.6481C33.359 58.7756 36.3384 59.8549 39.3335 59.8549C42.3287 59.8549 45.308 58.7756 47.5141 56.6481C49.72 54.5207 51.2052 51.3664 51.2052 46.974V30.6355C51.2052 29.9856 51.0217 29.6554 50.7563 29.3994C50.4909 29.1433 50.0997 28.9873 49.6922 28.9873C49.2847 28.9873 48.8935 29.1433 48.6281 29.3994C48.2028 29.8369 48.1675 30.2283 48.1625 30.7609V40.8112C48.1705 41.417 47.6606 41.9741 47.0984 41.9741C46.5361 41.9741 46.0263 41.417 46.0342 40.8112C46.0342 35.426 46.0342 30.0505 46.0342 24.6698C46.0342 24.0143 45.8526 23.6561 45.5853 23.3978C45.318 23.1395 44.914 22.9858 44.5045 22.9858C44.0951 22.9858 43.7077 23.1395 43.4404 23.3978C43.1731 23.6561 42.9915 24.0143 42.9915 24.6698V38.9302C42.9995 39.5359 42.4896 40.093 41.9274 40.093C41.3651 40.093 40.8553 39.5359 40.8632 38.9302C40.8579 32.7683 40.8632 26.6095 40.8632 20.4597C40.8632 19.8099 40.6631 19.4617 40.3977 19.2057C40.1323 18.9497 39.741 18.8115 39.3335 18.8115Z" clip-rule="evenodd"/></svg>