<svg xmlns="http://www.w3.org/2000/svg" width="67" height="52" fill="none" viewBox="0 0 67 52"><g clip-path="url(#clip0_21_19)"><rect width="66" height="47.84" x=".25" y="4" fill="#EA9975" rx="20"/><rect width="66" height="46" x=".25" fill="#FBC399" rx="20"/><mask id="mask0_21_19" width="67" height="46" x="0" y="0" maskUnits="userSpaceOnUse" style="mask-type:alpha"><rect width="66" height="46" x=".25" fill="#fff" rx="20"/></mask></g><path fill="#B67C62" d="M43.9806 23.1303C43.658 17.6045 39.2456 13.0916 33.8119 12.6813V9.56382C33.8119 9.09906 33.2739 8.82555 32.924 9.12576L26.6833 14.1589C26.4143 14.378 26.4143 14.8149 26.6833 15.0339L32.924 20.0395C33.2739 20.3408 33.8119 20.0673 33.8119 19.6014V16.5928C37.6315 17.0309 40.5371 20.5587 40.1061 24.6335C39.7572 27.9712 37.0935 30.6787 33.8119 31.0342C29.7233 31.499 26.1987 28.4359 25.8488 24.4421C25.8214 24.0863 25.5262 23.8128 25.1762 23.8128H22.6743C22.2708 23.8128 21.9744 24.1408 22.0017 24.551C22.4063 30.3782 27.1675 35 33.0047 35C39.2728 35 44.3565 29.6121 43.9804 23.1301L43.9806 23.1303Z"/><defs><clipPath id="clip0_21_19"><rect width="66" height="52" fill="#fff" transform="translate(0.25)"/></clipPath></defs></svg>