<svg xmlns="http://www.w3.org/2000/svg" width="80" height="80" fill="none" viewBox="0 0 80 80"><g opacity=".747"><rect width="80" height="80" fill="#232586" rx="40" style="mix-blend-mode:multiply"/></g><mask id="mask0_0_10944" width="80" height="80" x="0" y="0" maskUnits="userSpaceOnUse" style="mask-type:alpha"><rect width="80" height="80" fill="#fff" rx="40"/><rect width="80" height="80" stroke="#fff" rx="40"/></mask><g mask="url(#mask0_0_10944)"><path fill="#fff" fill-rule="evenodd" d="M52.3905 48.7515C54.1385 45.2239 54.1587 31.7151 54.1587 31.1416C54.1587 29.3044 52.5562 27.7519 50.6592 27.7513C50.3882 27.7513 49.8932 27.8276 49.3865 27.9886C49.2208 25.9604 47.5315 24.3615 45.4799 24.3615C44.5393 24.3615 43.6753 24.6977 42.9995 25.2564C42.4474 23.7463 41.0067 22.6666 39.3208 22.6666C37.4966 22.6666 35.5772 23.7146 35.0088 25.6807C34.3935 25.1977 33.6186 24.9265 32.7395 24.9265C30.5076 24.9265 28.8878 26.7084 28.8878 29.166L28.8939 31.4207C28.418 31.6625 27.6834 32.1207 26.7646 32.9625C23.7248 35.7506 22.7298 42.4928 26.1627 47.7108C29.6784 53.0559 34.996 56 41.1361 56C48.2073 56 50.5735 52.4192 52.3905 48.7515ZM50.6956 29.4467C51.6654 29.4467 52.475 30.2388 52.475 31.1416C52.475 34.9359 52.1861 45.3606 50.8809 47.9944C49.1698 51.4481 47.2487 54.3062 41.1226 54.3062C35.5637 54.3062 30.7288 51.6317 27.535 46.7753C25.4852 43.6589 24.5294 37.2184 27.801 34.2184C28.1733 33.8766 28.9544 33.4133 28.9544 33.4133L28.946 39.3341C28.946 40.0403 29.1857 40.4641 29.689 40.4641C30.1924 40.4641 30.4382 40.0641 30.4382 39.3341V29.1643C30.4382 27.8987 31.184 26.6219 32.6846 26.6219C34.2356 26.6219 34.809 27.9914 34.809 29.1643C34.809 29.632 35.23 30.0117 35.6936 30.0117C36.1572 30.0117 36.5973 29.632 36.5973 29.1643V26.9044C36.5973 25.0389 38.2715 24.3621 39.3969 24.3621C40.6321 24.3621 41.6366 25.3756 41.6366 26.6219V29.7292C41.6366 30.197 42.0129 30.5767 42.4765 30.5767C42.9401 30.5767 43.3164 30.197 43.3164 29.7292V28.3168C43.3164 27.0705 44.3209 26.057 45.5561 26.057C46.7913 26.057 47.7958 27.0705 47.7958 28.3168V31.9891C47.7958 32.4569 48.172 32.8365 48.6356 32.8365C49.0992 32.8365 49.4755 32.4569 49.4755 31.9891V29.8106C49.4755 29.6524 50.3148 29.4467 50.6956 29.4467Z" clip-rule="evenodd"/><path fill="#fff" d="M52.3905 48.7515L52.1664 48.6405L52.1665 48.6405L52.3905 48.7515ZM50.6592 27.7513V27.5013H50.6593L50.6592 27.7513ZM49.3865 27.9886L49.4622 28.2268L49.1629 28.3219L49.1373 28.0089L49.3865 27.9886ZM42.9995 25.2564L43.1588 25.4491L42.8861 25.6745L42.7647 25.3423L42.9995 25.2564ZM35.0088 25.6807L35.249 25.7501L35.1461 26.1062L34.8545 25.8773L35.0088 25.6807ZM28.8878 29.166L28.6378 29.1666V29.166H28.8878ZM28.8939 31.4207L29.1439 31.42L29.1444 31.5739L29.0072 31.6436L28.8939 31.4207ZM26.7646 32.9625L26.5956 32.7783L26.5957 32.7782L26.7646 32.9625ZM26.1627 47.7108L26.3715 47.5734L26.3715 47.5735L26.1627 47.7108ZM50.8809 47.9944L50.6569 47.8835L50.6569 47.8834L50.8809 47.9944ZM27.535 46.7753L27.7439 46.6379L27.7439 46.6379L27.535 46.7753ZM27.801 34.2184L27.97 34.4026L27.9699 34.4027L27.801 34.2184ZM28.9544 33.4133L28.8269 33.1983L29.205 32.974L29.2044 33.4137L28.9544 33.4133ZM28.946 39.3341H28.696V39.3338L28.946 39.3341ZM54.4087 31.1416C54.4087 31.4301 54.4036 34.9562 54.1797 38.8531C54.0677 40.8012 53.9008 42.846 53.6518 44.627C53.4041 46.3981 53.0713 47.9405 52.6145 48.8625L52.1665 48.6405C52.5836 47.7986 52.9089 46.3296 53.1566 44.5578C53.403 42.7958 53.5689 40.7661 53.6805 38.8244C53.9037 34.9416 53.9087 31.4265 53.9087 31.1416H54.4087ZM50.6593 27.5013C52.6867 27.5019 54.4087 29.1588 54.4087 31.1416H53.9087C53.9087 29.4499 52.4257 28.0018 50.6591 28.0013L50.6593 27.5013ZM49.3108 27.7503C49.8345 27.5839 50.3557 27.5013 50.6592 27.5013V28.0013C50.4207 28.0013 49.9519 28.0712 49.4622 28.2268L49.3108 27.7503ZM45.4799 24.1115C47.6646 24.1115 49.4596 25.8132 49.6357 27.9682L49.1373 28.0089C48.9819 26.1075 47.3983 24.6115 45.4799 24.6115V24.1115ZM42.8402 25.0637C43.5588 24.4696 44.4786 24.1115 45.4799 24.1115V24.6115C44.6 24.6115 43.7918 24.9257 43.1588 25.4491L42.8402 25.0637ZM39.3208 22.4166C41.1164 22.4166 42.6478 23.5664 43.2343 25.1706L42.7647 25.3423C42.247 23.9262 40.897 22.9166 39.3208 22.9166V22.4166ZM34.7687 25.6113C35.3753 23.5126 37.4144 22.4166 39.3208 22.4166V22.9166C37.5787 22.9166 35.779 23.9166 35.249 25.7501L34.7687 25.6113ZM32.7395 24.6765C33.6717 24.6765 34.5017 24.9647 35.1632 25.484L34.8545 25.8773C34.2853 25.4306 33.5654 25.1765 32.7395 25.1765V24.6765ZM28.6378 29.166C28.6378 26.5934 30.3476 24.6765 32.7395 24.6765V25.1765C30.6677 25.1765 29.1378 26.8234 29.1378 29.166H28.6378ZM28.6439 31.4214L28.6378 29.1666L29.1378 29.1653L29.1439 31.42L28.6439 31.4214ZM26.5957 32.7782C27.5303 31.9219 28.2835 31.4505 28.7807 31.1978L29.0072 31.6436C28.5526 31.8746 27.8365 32.3195 26.9334 33.1468L26.5957 32.7782ZM25.9538 47.8482C24.204 45.1886 23.5838 42.1426 23.787 39.4069C23.9899 36.6768 25.016 34.227 26.5956 32.7783L26.9336 33.1467C25.4733 34.4861 24.482 36.8014 24.2857 39.444C24.0897 42.081 24.6884 45.0151 26.3715 47.5734L25.9538 47.8482ZM41.1361 56.25C34.9077 56.25 29.5134 53.2601 25.9538 47.8482L26.3715 47.5735C29.8434 52.8518 35.0843 55.75 41.1361 55.75V56.25ZM52.6145 48.8625C51.703 50.7024 50.6373 52.557 48.8892 53.9468C47.1345 55.3419 44.7171 56.25 41.1361 56.25V55.75C44.6262 55.75 46.9276 54.8676 48.578 53.5554C50.2351 52.2379 51.261 50.4684 52.1664 48.6405L52.6145 48.8625ZM52.225 31.1416C52.225 30.3863 51.5369 29.6967 50.6956 29.6967V29.1967C51.7939 29.1967 52.725 30.0914 52.725 31.1416H52.225ZM50.6569 47.8834C50.9639 47.2639 51.2227 46.1541 51.4334 44.7466C51.6426 43.3488 51.8005 41.6875 51.918 39.986C52.1529 36.5832 52.225 33.0344 52.225 31.1416H52.725C52.725 33.0431 52.6527 36.6038 52.4168 40.0204C52.2989 41.7285 52.1399 43.4044 51.9279 44.8206C51.7173 46.2271 51.4505 47.4081 51.1049 48.1054L50.6569 47.8834ZM41.1226 54.0562C44.1446 54.0562 46.0976 53.3522 47.503 52.2488C48.9156 51.1397 49.8032 49.6064 50.6569 47.8835L51.1049 48.1054C50.2475 49.8361 49.319 51.4587 47.8118 52.6421C46.2973 53.8311 44.2267 54.5562 41.1226 54.5562V54.0562ZM27.7439 46.6379C30.8938 51.4276 35.6521 54.0562 41.1226 54.0562V54.5562C35.4753 54.5562 30.5638 51.8357 27.3261 46.9126L27.7439 46.6379ZM27.9699 34.4027C26.4103 35.8328 25.8374 38.106 25.9223 40.4441C26.0071 42.7793 26.7473 45.1228 27.7439 46.6379L27.3262 46.9126C26.2729 45.3113 25.5103 42.8764 25.4226 40.4623C25.3351 38.051 25.9201 35.6039 27.632 34.0341L27.9699 34.4027ZM28.9544 33.4133C29.082 33.6284 29.082 33.6284 29.082 33.6284C29.082 33.6284 29.082 33.6284 29.082 33.6284C29.082 33.6284 29.0819 33.6284 29.0819 33.6284C29.0818 33.6284 29.0817 33.6285 29.0816 33.6286C29.0813 33.6288 29.0808 33.6291 29.0801 33.6295C29.0787 33.6303 29.0767 33.6315 29.0739 33.6332C29.0684 33.6365 29.0601 33.6414 29.0494 33.6479C29.0279 33.6609 28.9966 33.6799 28.9578 33.7038C28.8802 33.7517 28.7729 33.819 28.6544 33.8968C28.4133 34.0549 28.1399 34.2466 27.97 34.4026L27.6319 34.0342C27.8344 33.8484 28.1378 33.6376 28.3803 33.4786C28.5035 33.3978 28.6148 33.328 28.6953 33.2783C28.7356 33.2535 28.7682 33.2336 28.7909 33.2199C28.8023 33.213 28.8111 33.2077 28.8172 33.2041C28.8203 33.2023 28.8226 33.2009 28.8242 33.1999C28.8251 33.1994 28.8257 33.199 28.8261 33.1988C28.8263 33.1986 28.8265 33.1985 28.8266 33.1985C28.8267 33.1984 28.8268 33.1984 28.8268 33.1984C28.8268 33.1983 28.8268 33.1983 28.8269 33.1983C28.8269 33.1983 28.8269 33.1983 28.9544 33.4133ZM28.696 39.3338L28.7044 33.413L29.2044 33.4137L29.196 39.3345L28.696 39.3338ZM29.689 40.7141C29.3535 40.7141 29.0871 40.5658 28.9175 40.2976C28.7583 40.046 28.696 39.7086 28.696 39.3341H29.196C29.196 39.6659 29.2535 39.8935 29.34 40.0303C29.4161 40.1505 29.5212 40.2141 29.689 40.2141V40.7141ZM30.6882 39.3341C30.6882 39.7198 30.6246 40.0591 30.462 40.3091C30.2881 40.5765 30.0189 40.7141 29.689 40.7141V40.2141C29.8625 40.2141 29.9679 40.1516 30.0428 40.0365C30.1289 39.9041 30.1882 39.6784 30.1882 39.3341H30.6882ZM30.6882 29.1643V39.3341H30.1882V29.1643H30.6882ZM32.6846 26.8719C32.014 26.8719 31.5239 27.1535 31.1955 27.5727C30.8618 27.9986 30.6882 28.577 30.6882 29.1643H30.1882C30.1882 28.486 30.3875 27.7933 30.8019 27.2643C31.2215 26.7287 31.8546 26.3719 32.6846 26.3719V26.8719ZM34.559 29.1643C34.559 28.6129 34.4233 28.0312 34.1226 27.5952C33.8296 27.1703 33.3737 26.8719 32.6846 26.8719V26.3719C33.5465 26.3719 34.1528 26.7583 34.5342 27.3113C34.908 27.8533 35.059 28.5428 35.059 29.1643H34.559ZM35.6936 30.2617C35.1068 30.2617 34.559 29.7845 34.559 29.1643H35.059C35.059 29.4796 35.3532 29.7617 35.6936 29.7617V30.2617ZM36.8473 29.1643C36.8473 29.791 36.2734 30.2617 35.6936 30.2617V29.7617C36.041 29.7617 36.3473 29.4731 36.3473 29.1643H36.8473ZM36.8473 26.9044V29.1643H36.3473V26.9044H36.8473ZM39.3969 24.6121C38.8771 24.6121 38.2307 24.7699 37.7211 25.1366C37.2215 25.4961 36.8473 26.0588 36.8473 26.9044H36.3473C36.3473 25.8845 36.8102 25.176 37.4291 24.7308C38.038 24.2926 38.7913 24.1121 39.3969 24.1121V24.6121ZM41.3866 26.6219C41.3866 25.5116 40.4919 24.6121 39.3969 24.6121V24.1121C40.7723 24.1121 41.8866 25.2397 41.8866 26.6219H41.3866ZM41.3866 29.7292V26.6219H41.8866V29.7292H41.3866ZM42.4765 30.8267C41.8727 30.8267 41.3866 30.333 41.3866 29.7292H41.8866C41.8866 30.0611 42.1531 30.3267 42.4765 30.3267V30.8267ZM43.5664 29.7292C43.5664 30.333 43.0803 30.8267 42.4765 30.8267V30.3267C42.7999 30.3267 43.0664 30.0611 43.0664 29.7292H43.5664ZM43.5664 28.3168V29.7292H43.0664V28.3168H43.5664ZM45.5561 26.307C44.4611 26.307 43.5664 27.2065 43.5664 28.3168H43.0664C43.0664 26.9346 44.1807 25.807 45.5561 25.807V26.307ZM47.5458 28.3168C47.5458 27.2065 46.6511 26.307 45.5561 26.307V25.807C46.9314 25.807 48.0458 26.9346 48.0458 28.3168H47.5458ZM47.5458 31.9891V28.3168H48.0458V31.9891H47.5458ZM48.6356 33.0865C48.0318 33.0865 47.5458 32.5928 47.5458 31.9891H48.0458C48.0458 32.3209 48.3122 32.5865 48.6356 32.5865V33.0865ZM49.7255 31.9891C49.7255 32.5928 49.2394 33.0865 48.6356 33.0865V32.5865C48.9591 32.5865 49.2255 32.3209 49.2255 31.9891H49.7255ZM49.7255 29.8106V31.9891H49.2255V29.8106H49.7255ZM50.6956 29.6967C50.5362 29.6967 50.2552 29.7423 50.0094 29.8103C49.8874 29.844 49.7874 29.8797 49.7227 29.9114C49.7073 29.919 49.6957 29.9255 49.6874 29.9306C49.6787 29.936 49.676 29.9385 49.6771 29.9375C49.6775 29.9372 49.6874 29.9287 49.6983 29.9109C49.7097 29.8923 49.7255 29.8576 49.7255 29.8106H49.2255C49.2255 29.6798 49.3083 29.5959 49.3476 29.5615C49.3949 29.52 49.4513 29.4876 49.5025 29.4625C49.6071 29.4112 49.7407 29.3658 49.8761 29.3284C50.1452 29.254 50.4742 29.1967 50.6956 29.1967V29.6967Z"/></g></svg>