<svg xmlns="http://www.w3.org/2000/svg" width="375" height="812" fill="none" viewBox="0 0 375 812"><g clip-path="url(#clip0_0_7638)"><rect width="375" height="812" fill="#FDFEFF"/><rect width="375" height="982" fill="url(#paint0_linear_0_7638)" opacity=".588"/><g filter="url(#filter0_d_0_7638)"><rect width="131" height="176" x="309" y="633" fill="#EC6051" rx="20"/><mask id="mask0_0_7638" width="131" height="176" x="309" y="633" maskUnits="userSpaceOnUse" style="mask-type:alpha"><rect width="131" height="176" x="309" y="633" fill="#fff" rx="20"/></mask><g mask="url(#mask0_0_7638)"><path fill="#fff" fill-rule="evenodd" d="M364.539 763.675C364.539 763.675 362.832 781.318 366.816 781.887C370.801 782.456 373.267 764.054 371.18 762.916C369.092 761.778 364.539 763.675 364.539 763.675Z" clip-rule="evenodd"/><path fill="#CCC" fill-rule="evenodd" d="M371.505 771.64C372.133 767.437 372.119 763.428 371.179 762.916C369.093 761.778 364.539 763.675 364.539 763.675C364.539 763.675 364.227 766.912 364.181 770.658C365.417 771.281 366.776 771.672 368.158 771.789C369.275 771.882 370.397 771.817 371.505 771.64Z" clip-rule="evenodd"/><path fill="#fff" fill-rule="evenodd" d="M371.085 729.411C361.311 729.552 348.606 740.004 348.746 753.5C348.885 766.995 358.847 772.556 367.1 764.938C367.1 764.938 373.613 774.678 381.03 769.84C388.446 765.004 392.431 729.105 371.085 729.411Z" clip-rule="evenodd"/><path fill="#1B122E" fill-rule="evenodd" d="M375.938 741.782C380.051 740.776 383.49 742.404 386.491 744.818C386.352 743.966 386.189 743.124 385.985 742.302C383.067 740.474 379.644 739.649 376.098 740.64C377.011 737.071 377.82 733.743 378.435 731.149C378.128 730.976 377.811 730.815 377.484 730.667C376.62 734.348 375.281 739.739 373.75 745.358C369.443 761.185 367.725 763.878 367.249 764.334C365.813 762.646 367.186 746.089 369.474 729.53C369.084 729.577 368.692 729.635 368.298 729.712C367.939 732.314 367.52 735.502 367.118 738.898C366.34 736.552 363.324 735.186 361.108 734.498C360.418 734.283 359.73 734.131 359.043 734.007C358.345 734.528 357.664 735.086 357.007 735.682C358.017 735.764 359.021 735.93 360.002 736.216C362.786 737.026 364.613 738.752 366.966 740.204C366.71 742.428 366.469 744.718 366.258 746.967C360.502 745.042 353.963 745.961 349.092 749.484C348.956 750.236 348.861 751.002 348.806 751.779C353.887 748.062 359.791 746.618 366.165 748.016C365.896 751.053 365.697 753.979 365.621 756.549C360.178 754.461 354.002 757.046 350.112 761.122C350.317 761.641 350.546 762.131 350.792 762.599C354.921 758.577 359.879 757.477 365.605 757.092C365.506 761.349 365.77 764.516 366.661 765.32C366.807 765.192 366.954 765.072 367.1 764.938C367.1 764.938 367.237 765.142 367.488 765.471C367.695 765.408 367.897 765.299 368.096 765.085C369.012 764.104 370.239 760.96 371.553 756.861C376.523 759.449 380.165 763.69 382.179 768.797C382.518 768.412 382.845 767.967 383.158 767.461C380.988 762.404 376.95 758.357 371.827 756.001C372.619 753.473 373.436 750.63 374.231 747.726C380.906 749.492 384.223 755.748 385.397 762.149C385.6 761.458 385.79 760.746 385.957 760.003C384.507 753.87 381.026 748.376 374.458 746.885C374.92 745.181 375.371 743.467 375.803 741.788C375.848 741.788 375.887 741.794 375.938 741.782Z" clip-rule="evenodd"/><path fill="#CCC" fill-rule="evenodd" d="M364.506 747.76C369.89 747.602 374.368 743.672 377.929 739.632C379.427 737.932 380.88 736.114 382.072 734.173C379.575 731.213 376.012 729.341 371.085 729.411C364.131 729.511 355.697 734.833 351.458 742.755C351.93 743.032 352.401 743.309 352.873 743.586C356.476 745.701 360.33 747.885 364.506 747.76Z" clip-rule="evenodd"/><mask id="mask1_0_7638" width="85" height="98" x="337" y="645" maskUnits="userSpaceOnUse" style="mask-type:alpha"><path fill="#fff" fill-rule="evenodd" d="M339.872 671.45C336.457 696.329 354.293 703.298 354.293 703.298C354.293 703.298 335.319 723.306 337.216 728.164C339.114 733.026 365.818 746.195 370.801 742.239C378.2 736.364 378.96 711.761 378.96 711.761C378.96 711.761 413.872 714.828 419.184 696.663C424.498 678.495 419.184 656.87 394.138 648.143C389.129 646.398 383.278 645.456 377.304 645.456C360.348 645.456 342.398 653.053 339.872 671.45Z" clip-rule="evenodd"/></mask><g mask="url(#mask1_0_7638)"><path fill="#fff" fill-rule="evenodd" d="M394.139 648.144C374.907 641.443 343.287 646.572 339.872 671.451C336.457 696.329 354.293 703.299 354.293 703.299C354.293 703.299 335.319 723.305 337.216 728.164C339.113 733.025 365.817 746.195 370.8 742.239C378.2 736.364 378.959 711.761 378.959 711.761C378.959 711.761 413.871 714.827 419.184 696.662C424.497 678.496 419.184 656.87 394.139 648.144Z" clip-rule="evenodd"/></g><mask id="mask2_0_7638" width="85" height="98" x="337" y="645" maskUnits="userSpaceOnUse" style="mask-type:alpha"><path fill="#fff" fill-rule="evenodd" d="M339.872 671.45C336.457 696.329 354.293 703.298 354.293 703.298C354.293 703.298 335.319 723.306 337.216 728.164C339.114 733.026 365.818 746.195 370.801 742.239C378.2 736.364 378.96 711.761 378.96 711.761C378.96 711.761 413.872 714.828 419.184 696.663C424.498 678.495 419.184 656.87 394.138 648.143C389.129 646.398 383.278 645.456 377.304 645.456C360.348 645.456 342.398 653.053 339.872 671.45Z" clip-rule="evenodd"/></mask><g mask="url(#mask2_0_7638)"><path fill="#1B122E" fill-rule="evenodd" d="M361.313 715.489C358.203 715.145 358.846 708.091 355.811 709.23C352.775 710.367 350.308 724.595 357.139 728.011C363.969 731.425 375.87 722.019 372.792 716.06C371.274 713.117 366.437 716.06 361.313 715.489Z" clip-rule="evenodd"/></g><mask id="mask3_0_7638" width="85" height="98" x="337" y="645" maskUnits="userSpaceOnUse" style="mask-type:alpha"><path fill="#fff" fill-rule="evenodd" d="M339.872 671.45C336.457 696.329 354.293 703.298 354.293 703.298C354.293 703.298 335.319 723.306 337.216 728.164C339.114 733.026 365.818 746.195 370.801 742.239C378.2 736.364 378.96 711.761 378.96 711.761C378.96 711.761 413.872 714.828 419.184 696.663C424.498 678.495 419.184 656.87 394.138 648.143C389.129 646.398 383.278 645.456 377.304 645.456C360.348 645.456 342.398 653.053 339.872 671.45Z" clip-rule="evenodd"/></mask><g mask="url(#mask3_0_7638)"><path fill="#1B122E" fill-rule="evenodd" d="M361.791 708.185L358.657 712.041C357.854 713.029 356.528 714.121 356.322 715.404C356.268 715.74 356.561 715.963 356.871 715.825C358.051 715.305 358.783 713.732 359.528 712.714L362.462 708.702C362.745 708.314 362.096 707.809 361.791 708.185Z" clip-rule="evenodd"/></g><mask id="mask4_0_7638" width="85" height="98" x="337" y="645" maskUnits="userSpaceOnUse" style="mask-type:alpha"><path fill="#fff" fill-rule="evenodd" d="M339.872 671.45C336.457 696.329 354.293 703.298 354.293 703.298C354.293 703.298 335.319 723.306 337.216 728.164C339.114 733.026 365.818 746.195 370.801 742.239C378.2 736.364 378.96 711.761 378.96 711.761C378.96 711.761 413.872 714.828 419.184 696.663C424.498 678.495 419.184 656.87 394.138 648.143C389.129 646.398 383.278 645.456 377.304 645.456C360.348 645.456 342.398 653.053 339.872 671.45Z" clip-rule="evenodd"/></mask><g mask="url(#mask4_0_7638)"><path fill="#1B122E" fill-rule="evenodd" d="M366.323 709.447C365.746 711.073 365.131 712.686 364.46 714.276C364.131 715.054 363.786 715.824 363.438 716.593C363.309 716.85 363.19 717.111 363.081 717.378C362.741 718.005 362.856 718.184 363.428 717.917C363.274 717.825 363.104 717.872 362.975 717.976C362.953 717.993 362.932 718.011 362.911 718.029C362.76 718.15 362.724 718.446 362.837 718.604C362.859 718.634 362.879 718.665 362.901 718.695C363.078 718.946 363.383 719.055 363.667 718.896C364.8 718.266 365.154 716.478 365.574 715.359C366.269 713.516 366.887 711.644 367.454 709.759C367.674 709.026 366.573 708.742 366.323 709.447Z" clip-rule="evenodd"/></g><mask id="mask5_0_7638" width="85" height="98" x="337" y="645" maskUnits="userSpaceOnUse" style="mask-type:alpha"><path fill="#fff" fill-rule="evenodd" d="M339.872 671.45C336.457 696.329 354.293 703.298 354.293 703.298C354.293 703.298 335.319 723.306 337.216 728.164C339.114 733.026 365.818 746.195 370.801 742.239C378.2 736.364 378.96 711.761 378.96 711.761C378.96 711.761 413.872 714.828 419.184 696.663C424.498 678.495 419.184 656.87 394.138 648.143C389.129 646.398 383.278 645.456 377.304 645.456C360.348 645.456 342.398 653.053 339.872 671.45Z" clip-rule="evenodd"/></mask><g mask="url(#mask5_0_7638)"><path fill="#1B122E" fill-rule="evenodd" d="M355.015 721.211C354.933 721.364 354.254 721.634 354.064 721.793C353.792 722.022 353.557 722.339 353.315 722.605L351.552 724.55C350.627 725.571 349.206 726.65 348.793 727.985C348.69 728.32 349.064 728.539 349.342 728.407C350.121 728.039 350.545 727.34 351.091 726.686C351.709 725.942 352.327 725.2 352.943 724.459C353.673 723.582 355.056 722.446 355.12 721.203C355.121 721.181 355.104 721.166 355.085 721.159C355.052 721.141 355.018 721.131 354.982 721.129C354.837 721.103 354.955 721.324 355.015 721.211Z" clip-rule="evenodd"/></g><mask id="mask6_0_7638" width="85" height="98" x="337" y="645" maskUnits="userSpaceOnUse" style="mask-type:alpha"><path fill="#fff" fill-rule="evenodd" d="M339.872 671.45C336.457 696.329 354.293 703.298 354.293 703.298C354.293 703.298 335.319 723.306 337.216 728.164C339.114 733.026 365.818 746.195 370.801 742.239C378.2 736.364 378.96 711.761 378.96 711.761C378.96 711.761 413.872 714.828 419.184 696.663C424.498 678.495 419.184 656.87 394.138 648.143C389.129 646.398 383.278 645.456 377.304 645.456C360.348 645.456 342.398 653.053 339.872 671.45Z" clip-rule="evenodd"/></mask><g mask="url(#mask6_0_7638)"><path fill="#FFD91D" fill-rule="evenodd" d="M401.064 684.25C401.064 684.25 403.335 680.97 400.976 679.657C399.071 678.597 398.069 681.137 397.753 682.154C398.014 681.135 398.526 678.47 396.893 677.92C394.867 677.239 393.977 681.346 393.977 681.346C393.977 681.346 393.157 677.001 390.748 677.382C388.337 677.763 389.071 682.211 389.071 682.211C389.071 682.211 387.878 677.894 385.04 678.78C383.307 679.32 383.525 681.063 383.957 682.34C383.339 681.318 382.25 680.325 380.602 681.542C379.501 682.355 379.573 683.466 380.059 684.516C379.251 683.963 378.312 683.736 377.334 684.386C374.582 686.215 380.387 690.981 380.387 690.981C380.387 690.981 375.378 687.066 373.615 690.333C372.774 691.893 374.296 693.069 376.112 693.876C374.942 693.862 373.856 694.264 373.341 695.584C371.928 699.201 381.769 699.975 382.391 699.395L406.633 696.287C406.633 696.287 407.364 696.039 407.457 694.329C407.548 692.616 406.653 692.308 406.653 692.308C406.653 692.308 408.526 691.816 408.111 690.594C407.696 689.372 405.704 690.458 405.704 690.458C405.704 690.458 408.216 689.12 408.105 687.636C407.996 686.152 403.729 687.039 403.729 687.039C403.729 687.039 406.564 684.933 405.04 683.051C403.514 681.168 401.064 684.25 401.064 684.25Z" clip-rule="evenodd"/></g><mask id="mask7_0_7638" width="85" height="98" x="337" y="645" maskUnits="userSpaceOnUse" style="mask-type:alpha"><path fill="#fff" fill-rule="evenodd" d="M339.872 671.45C336.457 696.329 354.293 703.298 354.293 703.298C354.293 703.298 335.319 723.306 337.216 728.164C339.114 733.026 365.818 746.195 370.801 742.239C378.2 736.364 378.96 711.761 378.96 711.761C378.96 711.761 413.872 714.828 419.184 696.663C424.498 678.495 419.184 656.87 394.138 648.143C389.129 646.398 383.278 645.456 377.304 645.456C360.348 645.456 342.398 653.053 339.872 671.45Z" clip-rule="evenodd"/></mask><g mask="url(#mask7_0_7638)"><path fill="#1B122E" fill-rule="evenodd" d="M359.848 726.013C359.421 727.38 358.965 728.737 358.466 730.079C358.046 731.21 357.362 732.287 357.607 733.509C357.682 733.882 358.228 734.133 358.548 733.892C359.541 733.138 359.727 731.968 360.084 730.802C360.529 729.35 360.925 727.886 361.288 726.411C361.518 725.475 360.133 725.096 359.848 726.013Z" clip-rule="evenodd"/></g><mask id="mask8_0_7638" width="85" height="98" x="337" y="645" maskUnits="userSpaceOnUse" style="mask-type:alpha"><path fill="#fff" fill-rule="evenodd" d="M339.872 671.45C336.457 696.329 354.293 703.298 354.293 703.298C354.293 703.298 335.319 723.306 337.216 728.164C339.114 733.026 365.818 746.195 370.801 742.239C378.2 736.364 378.96 711.761 378.96 711.761C378.96 711.761 413.872 714.828 419.184 696.663C424.498 678.495 419.184 656.87 394.138 648.143C389.129 646.398 383.278 645.456 377.304 645.456C360.348 645.456 342.398 653.053 339.872 671.45Z" clip-rule="evenodd"/></mask><g mask="url(#mask8_0_7638)"><path fill="#FFD91D" fill-rule="evenodd" d="M364.966 685.184C364.966 685.184 369.235 684.757 368.665 681.911C368.205 679.612 365.427 680.562 364.375 681.013C365.391 680.517 367.93 679.077 367.243 677.358C366.389 675.224 362.405 677.358 362.405 677.358C362.405 677.358 365.392 673.659 363.4 671.951C361.408 670.244 358.277 673.943 358.277 673.943C358.277 673.943 360.981 669.96 358.277 668.252C356.628 667.211 355.354 668.603 354.606 669.848C355.012 668.629 355.068 667.046 352.923 666.544C351.489 666.209 350.63 667.044 350.109 668.174C349.998 667.125 349.529 666.198 348.316 665.851C344.901 664.872 345.043 672.948 345.043 672.948C345.043 672.948 344.759 666.118 340.854 666.951C338.989 667.35 339.088 669.414 339.692 671.465C338.89 670.497 337.803 669.889 336.362 670.387C332.414 671.752 338.639 680.346 339.548 680.453L358.988 698.131C358.988 698.131 359.701 698.558 361.166 697.441C362.634 696.323 362.262 695.374 362.262 695.374C362.262 695.374 363.97 696.567 364.681 695.374C365.392 694.183 363.116 693.31 363.116 693.31C363.116 693.31 365.961 694.431 367.1 693.31C368.239 692.186 364.539 689.31 364.539 689.31C364.539 689.31 368.239 690.163 368.718 687.602C369.196 685.042 364.966 685.184 364.966 685.184Z" clip-rule="evenodd"/></g><mask id="mask9_0_7638" width="85" height="98" x="337" y="645" maskUnits="userSpaceOnUse" style="mask-type:alpha"><path fill="#fff" fill-rule="evenodd" d="M339.872 671.45C336.457 696.329 354.293 703.298 354.293 703.298C354.293 703.298 335.319 723.306 337.216 728.164C339.114 733.026 365.818 746.195 370.801 742.239C378.2 736.364 378.96 711.761 378.96 711.761C378.96 711.761 413.872 714.828 419.184 696.663C424.498 678.495 419.184 656.87 394.138 648.143C389.129 646.398 383.278 645.456 377.304 645.456C360.348 645.456 342.398 653.053 339.872 671.45Z" clip-rule="evenodd"/></mask><g mask="url(#mask9_0_7638)"><path fill="#1B122E" fill-rule="evenodd" d="M353.097 700.078C350.865 700.078 346.618 699.259 343.245 693.775C341.04 690.19 340.388 685.608 341.502 681.52C342.377 678.3 344.213 675.809 346.667 674.505C348.13 673.729 349.7 673.334 351.332 673.334C356.511 673.334 361.103 677.277 362.758 683.142C364.509 689.347 361.687 696.203 357.952 698.715C356.683 699.568 354.868 700.078 353.097 700.078Z" clip-rule="evenodd"/></g><mask id="mask10_0_7638" width="85" height="98" x="337" y="645" maskUnits="userSpaceOnUse" style="mask-type:alpha"><path fill="#fff" fill-rule="evenodd" d="M339.872 671.45C336.457 696.329 354.293 703.298 354.293 703.298C354.293 703.298 335.319 723.306 337.216 728.164C339.114 733.026 365.818 746.195 370.801 742.239C378.2 736.364 378.96 711.761 378.96 711.761C378.96 711.761 413.872 714.828 419.184 696.663C424.498 678.495 419.184 656.87 394.138 648.143C389.129 646.398 383.278 645.456 377.304 645.456C360.348 645.456 342.398 653.053 339.872 671.45Z" clip-rule="evenodd"/></mask><g mask="url(#mask10_0_7638)"><path fill="#EE413C" fill-rule="evenodd" d="M351.333 671.058C349.323 671.058 347.395 671.541 345.599 672.494C342.583 674.096 340.346 677.089 339.304 680.923C338.029 685.606 338.778 690.855 341.305 694.966C345.258 701.395 350.39 702.355 353.096 702.355C355.335 702.355 357.567 701.716 359.222 700.604C364.668 696.944 366.58 688.301 364.95 682.525C363.016 675.666 357.543 671.058 351.333 671.058ZM351.333 675.611C355.23 675.611 359.11 678.593 360.568 683.761C362.093 689.168 359.395 695.002 356.682 696.825C355.955 697.313 354.657 697.802 353.096 697.802C350.7 697.802 347.686 696.65 345.185 692.582C341.627 686.796 343.244 678.9 347.735 676.515C348.887 675.904 350.11 675.611 351.333 675.611Z" clip-rule="evenodd"/></g><mask id="mask11_0_7638" width="85" height="98" x="337" y="645" maskUnits="userSpaceOnUse" style="mask-type:alpha"><path fill="#fff" fill-rule="evenodd" d="M339.872 671.45C336.457 696.329 354.293 703.298 354.293 703.298C354.293 703.298 335.319 723.306 337.216 728.164C339.114 733.026 365.818 746.195 370.801 742.239C378.2 736.364 378.96 711.761 378.96 711.761C378.96 711.761 413.872 714.828 419.184 696.663C424.498 678.495 419.184 656.87 394.138 648.143C389.129 646.398 383.278 645.456 377.304 645.456C360.348 645.456 342.398 653.053 339.872 671.45Z" clip-rule="evenodd"/></mask><g mask="url(#mask11_0_7638)"><path fill="#FFD91D" fill-rule="evenodd" d="M351.532 683.163C350.603 685.529 348.915 687.081 347.763 686.628C346.61 686.175 346.429 683.889 347.359 681.524C348.289 679.158 349.977 677.606 351.13 678.059C352.282 678.511 352.462 680.796 351.532 683.163Z" clip-rule="evenodd"/></g><mask id="mask12_0_7638" width="85" height="98" x="337" y="645" maskUnits="userSpaceOnUse" style="mask-type:alpha"><path fill="#fff" fill-rule="evenodd" d="M339.872 671.45C336.457 696.329 354.293 703.298 354.293 703.298C354.293 703.298 335.319 723.306 337.216 728.164C339.114 733.026 365.818 746.195 370.801 742.239C378.2 736.364 378.96 711.761 378.96 711.761C378.96 711.761 413.872 714.828 419.184 696.663C424.498 678.495 419.184 656.87 394.138 648.143C389.129 646.398 383.278 645.456 377.304 645.456C360.348 645.456 342.398 653.053 339.872 671.45Z" clip-rule="evenodd"/></mask><g mask="url(#mask12_0_7638)"><path fill="#1B122E" fill-rule="evenodd" d="M371.257 699.873C370.635 698.699 370.224 697.465 369.764 696.22C369.653 695.919 369.41 695.753 369.154 695.71C368.958 695.604 368.728 695.561 368.522 695.607C367.11 695.921 366.084 696.496 364.856 697.253C363.524 698.073 362.203 698.686 361.678 700.254C361.158 701.811 362.728 702.874 364.085 702.661C365.578 702.427 366.504 700.943 367.441 699.88C367.691 699.596 367.917 699.324 368.127 699.053C368.075 699.473 368.011 699.892 367.91 700.31C367.563 701.747 367.346 702.714 367.994 704.128C368.795 705.874 371.707 705.397 372.096 703.592C372.424 702.075 371.945 701.168 371.257 699.873Z" clip-rule="evenodd"/></g><mask id="mask13_0_7638" width="85" height="98" x="337" y="645" maskUnits="userSpaceOnUse" style="mask-type:alpha"><path fill="#fff" fill-rule="evenodd" d="M339.872 671.45C336.457 696.329 354.293 703.298 354.293 703.298C354.293 703.298 335.319 723.306 337.216 728.164C339.114 733.026 365.818 746.195 370.801 742.239C378.2 736.364 378.96 711.761 378.96 711.761C378.96 711.761 413.872 714.828 419.184 696.663C424.498 678.495 419.184 656.87 394.138 648.143C389.129 646.398 383.278 645.456 377.304 645.456C360.348 645.456 342.398 653.053 339.872 671.45Z" clip-rule="evenodd"/></mask><g mask="url(#mask13_0_7638)"><path fill="#EE413C" fill-rule="evenodd" d="M379.068 643.614C379.068 643.614 361.069 640.016 361.167 645.455C361.266 650.895 374.501 650.609 374.501 650.609C374.501 650.609 358.277 651.172 363.827 659.214C369.377 667.257 380.335 656.87 380.335 656.87C380.335 656.87 374.642 671.241 383.322 671.524C392.004 671.81 391.292 659.214 391.292 659.214C391.292 659.214 402.25 672.236 404.669 664.838C407.088 657.439 398.123 655.589 398.55 655.305C398.977 655.02 411.926 657.213 410.646 651.636" clip-rule="evenodd"/></g><path fill="#EE413C" fill-rule="evenodd" d="M345.043 674.94L341.628 669.675V677.359" clip-rule="evenodd"/><path fill="#1B122E" fill-rule="evenodd" d="M350.398 663.766C353.893 663.013 356.648 660.588 360.408 660.59C362.785 660.592 365.615 661.392 366.911 663.627C367.702 664.99 367.633 665.683 368.596 666.87C369.288 667.72 370.763 667.216 371.005 666.234C372.103 661.779 366.571 658.394 362.749 657.937C358.308 657.403 352.378 659.484 350.334 663.683C350.311 663.728 350.347 663.777 350.398 663.766Z" clip-rule="evenodd"/><path fill="#EE413C" fill-rule="evenodd" d="M369.411 724.947C369.177 724.763 368.944 724.576 368.708 724.401C365.284 721.844 361.251 719.654 356.984 719.911C355.568 719.997 354.217 720.368 352.923 720.909C353.336 723.954 354.589 726.735 357.139 728.011C360.803 729.842 365.924 727.982 369.411 724.947Z" clip-rule="evenodd"/><path fill="#1B122E" fill-rule="evenodd" d="M381.042 645.588C381.042 645.588 349.549 639.342 331.144 669.069C331.144 669.069 321.087 644.538 343.667 636.381C366.247 628.224 381.042 645.588 381.042 645.588Z" clip-rule="evenodd"/><path fill="#1B122E" fill-rule="evenodd" d="M368.021 639.091C368.556 639.202 368.783 638.413 368.248 638.267C352.683 634.043 337.406 640.664 329.202 653.038C329.06 653.972 328.977 654.899 328.937 655.81C336.584 642.726 352.057 635.757 368.021 639.091Z" clip-rule="evenodd"/><path fill="#1B122E" fill-rule="evenodd" d="M368.021 639.091C368.556 639.202 368.783 638.413 368.248 638.267C352.683 634.043 337.406 640.664 329.202 653.038C329.06 653.972 328.977 654.899 328.937 655.81C336.584 642.726 352.057 635.757 368.021 639.091Z" clip-rule="evenodd"/><path fill="#1B122E" fill-rule="evenodd" d="M329.777 663.743C329.643 663.983 330.001 664.193 330.145 663.959C335.928 654.483 343.288 645.337 354.753 643.055C354.811 643.045 354.799 642.945 354.739 642.951C342.662 644.259 335.301 653.797 329.777 663.743Z" clip-rule="evenodd"/><path fill="#1B122E" fill-rule="evenodd" d="M329.777 663.743C329.643 663.983 330.001 664.193 330.145 663.959C335.928 654.483 343.288 645.337 354.753 643.055C354.811 643.045 354.799 642.945 354.739 642.951C342.662 644.259 335.301 653.797 329.777 663.743Z" clip-rule="evenodd"/><path fill="#1B122E" fill-rule="evenodd" d="M368.021 639.091C368.556 639.202 368.783 638.413 368.248 638.267C352.683 634.043 337.406 640.664 329.202 653.038C329.06 653.972 328.977 654.899 328.937 655.81C336.584 642.726 352.057 635.757 368.021 639.091Z" clip-rule="evenodd"/><path fill="#1B122E" fill-rule="evenodd" d="M329.777 663.743C329.643 663.983 330.001 664.193 330.145 663.959C335.928 654.483 343.288 645.337 354.753 643.055C354.811 643.045 354.799 642.945 354.739 642.951C342.662 644.259 335.301 653.797 329.777 663.743Z" clip-rule="evenodd"/><path fill="#fff" fill-rule="evenodd" d="M347.082 740.341C348.595 739.571 352.166 737.932 350.383 736.101C348.601 734.27 344.521 731.235 343.334 732.943C342.15 734.651 342.269 738.823 342.269 738.823C342.269 738.823 307.047 730.857 304.201 733.702C301.355 736.547 300.027 742.175 302.873 743.724C305.718 745.273 311.79 740.72 311.79 740.72C311.79 740.72 341.105 744.705 341.627 746.032C342.15 747.361 341.44 749.064 342.269 750.298C343.098 751.534 347.963 750.581 348.745 749.069C349.526 747.554 345.922 740.932 347.082 740.341Z" clip-rule="evenodd"/><path fill="#fff" fill-rule="evenodd" d="M306.247 718.193L307.782 703.964C311.482 708.945 306.247 718.193 306.247 718.193ZM316.13 697.458C314.422 695.372 314.052 693.895 311.766 694.271C309.48 694.648 307.148 697.42 307.148 697.42C307.148 697.42 302.614 692.652 301.119 695.436C299.622 698.217 297.915 699.077 299.242 700.259C300.571 701.443 304.426 700.115 303.921 701.822C303.418 703.53 302.994 730.41 301.119 731.482C299.242 732.555 294.879 734.763 296.397 736.694C297.915 738.625 304.314 739.506 304.435 736.694C304.555 733.883 313.095 713.773 311.197 702.392C311.197 702.392 317.837 699.546 316.13 697.458Z" clip-rule="evenodd"/><path fill="#fff" fill-rule="evenodd" d="M376.103 783.769C379.707 781.67 384.043 781.419 385.066 782.618C388.267 786.371 386.819 790.017 385.066 791.724C383.312 793.431 377.241 794.759 376.103 792.672C374.964 790.586 372.498 785.869 376.103 783.769ZM357.708 790.802C356.57 792.891 350.497 791.561 348.745 789.855C346.991 788.148 345.544 784.501 348.745 780.749C349.768 779.549 354.104 779.8 357.708 781.899C361.313 784 358.846 788.716 357.708 790.802ZM386.963 774.869C383.703 773.92 369.385 783.505 366.071 784.076C361.682 784.829 348.6 770.154 344.805 772.226C341.01 774.298 339.303 790.993 342.529 794.218C345.754 797.444 352.923 795.167 352.923 795.167C352.923 795.167 349.086 799.72 352.923 801.616C356.759 803.514 365.108 797.444 365.108 797.444C365.108 797.444 369.282 805.53 373.267 803.668C377.251 801.807 374.785 796.305 374.785 796.305C374.785 796.305 390.004 799.34 391.028 795.167C392.051 790.993 390.222 775.816 386.963 774.869Z" clip-rule="evenodd"/><path fill="#fff" fill-rule="evenodd" d="M294.772 665.806C291.362 669.484 293.616 685.125 296.444 687.779C299.273 690.434 317.918 692.152 320.488 690.716C323.06 689.279 330.157 668.683 325.715 662.766C321.273 656.849 302.76 657.186 294.772 665.806Z" clip-rule="evenodd"/><path fill="#1B122E" fill-rule="evenodd" d="M327.083 670.476C327.038 670.48 326.997 670.474 326.949 670.487C324.207 671.24 321.463 671.976 318.714 672.634C319.469 668.192 318.827 663.558 317.973 659.083C317.646 659.032 317.314 658.986 316.977 658.945C317.699 663.654 318.018 668.174 317.514 672.918C314.95 673.507 312.383 674.01 309.807 674.382C309.096 669.351 308.275 664.382 307.963 659.288C307.863 659.304 307.765 659.326 307.665 659.345C307.505 664.369 307.535 669.595 308.314 674.586C305.786 674.896 303.249 675.053 300.701 675.022C300.265 672.948 299.969 670.859 299.942 668.666C299.912 666.239 300.371 663.915 300.747 661.564C300.39 661.733 300.041 661.911 299.696 662.094C298.411 666.088 298.477 670.803 299.486 675.003C297.356 674.923 295.219 674.688 293.073 674.293C293.076 674.408 293.08 674.525 293.085 674.642C295.282 675.206 297.486 675.592 299.692 675.804C300.092 675.841 300.492 675.87 300.892 675.899C303.432 676.073 305.972 676.048 308.511 675.84C309.004 675.8 309.497 675.745 309.99 675.692C312.437 675.429 314.877 675.018 317.307 674.488C317.661 674.409 318.016 674.334 318.37 674.252C321.254 673.581 324.12 672.75 326.96 671.822C327.009 671.369 327.053 670.918 327.083 670.476Z" clip-rule="evenodd"/><path fill="#fff" fill-rule="evenodd" d="M313.735 680.631C313.735 680.631 314.808 690.233 315.625 690.732C316.441 691.232 326.258 688.457 325.973 685.682C325.689 682.908 317.423 674.473 316.411 674.676C315.398 674.878 313.735 680.631 313.735 680.631Z" clip-rule="evenodd"/><path fill="#1B122E" fill-rule="evenodd" d="M313.681 680.616C313.681 680.616 313.796 679.933 314.089 678.758C314.233 678.169 314.445 677.467 314.718 676.658C314.859 676.256 315.009 675.825 315.235 675.38C315.343 675.157 315.477 674.93 315.648 674.687C315.767 674.547 315.992 674.335 316.085 674.301L316.167 674.255L316.189 674.243L316.199 674.237C316.109 674.267 316.333 674.189 316.324 674.196L316.455 674.189C316.666 674.189 316.721 674.232 316.827 674.261C317.453 674.531 317.849 674.859 318.319 675.21C318.773 675.561 319.204 675.954 319.647 676.358C320.534 677.165 321.405 678.077 322.259 679.06C323.106 680.05 323.959 681.094 324.737 682.233C325.12 682.806 325.49 683.398 325.81 684.04C325.966 684.363 326.099 684.693 326.207 685.068C326.267 685.278 326.294 685.454 326.308 685.619C326.321 685.888 326.283 686.069 326.214 686.279C325.897 687.055 325.285 687.49 324.713 687.886C324.133 688.283 323.52 688.606 322.901 688.894C321.667 689.477 320.428 689.985 319.206 690.443C318.594 690.666 317.982 690.864 317.366 691.028C317.056 691.105 316.75 691.187 316.426 691.234C316.261 691.254 316.099 691.273 315.909 691.273C315.676 691.271 315.352 691.229 315.168 690.959C315.118 690.901 315.072 690.842 315.03 690.781L314.973 690.658L314.87 690.418C314.799 690.254 314.773 690.118 314.722 689.969C314.624 689.674 314.571 689.397 314.505 689.116C314.39 688.56 314.296 688.026 314.212 687.513C314.063 686.486 313.946 685.544 313.883 684.705C313.817 683.867 313.745 683.14 313.725 682.536L313.68 680.625L313.681 680.616ZM313.795 680.637C313.811 680.706 313.964 681.361 314.2 682.475C314.432 683.65 314.766 685.329 315.164 687.345C315.262 687.846 315.37 688.364 315.495 688.893C315.568 689.147 315.616 689.43 315.698 689.68C315.737 689.802 315.767 689.951 315.815 690.054L315.882 690.218L315.912 690.299L315.91 690.292C315.865 690.321 315.888 690.294 315.942 690.304C316.052 690.312 316.189 690.308 316.326 690.298C316.605 690.285 316.901 690.249 317.199 690.208C317.796 690.121 318.411 689.998 319.032 689.855C320.276 689.575 321.545 689.169 322.748 688.577C323.342 688.273 323.928 687.937 324.464 687.542C324.972 687.131 325.471 686.631 325.62 686.093C325.65 685.97 325.646 685.811 325.638 685.735C325.602 685.559 325.556 685.402 325.501 685.286C325.388 685.012 325.232 684.718 325.059 684.444C324.724 683.882 324.332 683.342 323.924 682.819C323.115 681.77 322.252 680.776 321.381 679.847C320.512 678.919 319.653 678.038 318.829 677.218C318.417 676.808 318.002 676.428 317.604 676.065C317.217 675.714 316.776 675.348 316.467 675.186C316.45 675.176 316.387 675.158 316.469 675.168C316.481 675.167 316.493 675.162 316.505 675.155C316.486 675.159 316.706 675.09 316.607 675.122L316.596 675.128L316.575 675.137L316.488 675.177C316.411 675.204 316.404 675.23 316.406 675.246C316.399 675.263 316.388 675.273 316.372 675.283C316.247 675.437 316.119 675.612 316.008 675.804C315.788 676.186 315.576 676.569 315.399 676.94C315.033 677.681 314.762 678.355 314.519 678.903C314.081 679.953 313.821 680.572 313.795 680.637Z" clip-rule="evenodd"/><path fill="#fff" fill-rule="evenodd" d="M307.189 671.667C306.083 672.17 304.628 678.212 305.482 678.923C306.336 679.635 313.024 681.057 313.736 680.631C314.447 680.203 316.256 676.197 315.398 674.878C314.541 673.558 308.754 670.956 307.189 671.667Z" clip-rule="evenodd"/><path fill="#1B122E" fill-rule="evenodd" d="M307.166 671.615C307.166 671.615 307.289 671.578 307.521 671.507C307.758 671.476 308.105 671.459 308.545 671.492C309.419 671.568 310.678 671.759 312.126 672.235C312.849 672.475 313.599 672.815 314.367 673.268C314.766 673.517 315.109 673.699 315.554 674.139C315.674 674.245 315.724 674.323 315.8 674.412L315.854 674.478L315.867 674.494L315.911 674.554L315.918 674.568L315.947 674.625L316.056 674.856C316.18 675.164 316.204 675.462 316.207 675.737C316.187 676.83 315.854 677.773 315.456 678.707C315.241 679.167 315.006 679.617 314.723 680.056C314.56 680.283 314.446 680.459 314.187 680.716C314.123 680.783 314.071 680.822 314.022 680.853L313.907 680.932L313.762 680.977C313.538 681.046 313.438 681.008 313.287 681.016C312.235 680.937 311.294 680.68 310.325 680.513C309.368 680.323 308.423 680.16 307.497 680C307.035 679.912 306.583 679.821 306.133 679.694C305.927 679.644 305.638 679.54 305.411 679.434L305.268 679.353L305.233 679.334C305.209 679.316 305.264 679.359 305.173 679.292L305.146 679.263L305.044 679.142C304.889 678.954 304.857 678.815 304.816 678.68C304.599 677.628 304.792 676.857 304.959 676.098C305.361 674.625 305.907 673.485 306.32 672.711C306.525 672.325 306.71 672.037 306.88 671.847C307.044 671.671 307.162 671.631 307.157 671.621L307.166 671.615ZM307.222 671.713C307.232 671.719 307.102 671.776 306.963 671.943C306.829 672.105 306.642 672.391 306.501 672.796C306.193 673.592 305.976 674.818 305.848 676.256C305.795 676.946 305.674 677.799 305.779 678.42C305.718 678.577 306.038 678.719 306.421 678.907C306.807 679.09 307.231 679.247 307.658 679.409C308.518 679.737 309.44 679.997 310.391 680.173C311.332 680.351 312.345 680.453 313.268 680.394C313.682 680.406 313.734 680.056 313.987 679.624C314.198 679.213 314.373 678.773 314.527 678.333C314.828 677.465 315.073 676.541 315.029 675.776C315.055 675.065 314.42 674.782 313.741 674.275C313.064 673.836 312.369 673.471 311.74 673.113C310.479 672.388 309.348 671.89 308.515 671.705C308.098 671.609 307.765 671.617 307.54 671.637C307.327 671.689 307.213 671.719 307.213 671.719L307.222 671.713Z" clip-rule="evenodd"/><path fill="#CCC" fill-rule="evenodd" d="M358.053 795.649C358.363 795.064 358.576 794.273 358.118 793.794C358.118 793.794 351.056 795.079 346.806 795.901C349.839 796.138 352.923 795.168 352.923 795.168C352.923 795.168 350.132 798.492 351.719 800.643C351.981 800.549 352.249 800.472 352.507 800.364C354.793 799.413 356.897 797.837 358.053 795.649Z" clip-rule="evenodd"/><path fill="#fff" fill-rule="evenodd" d="M357.965 794.492C360.455 793.1 350 787.121 337.197 788.95C324.396 790.778 311.406 792.587 312.581 795.769C313.756 798.954 316.689 798.324 318.219 798.302C319.749 798.281 356.541 795.289 357.965 794.492Z" clip-rule="evenodd"/><path fill="#fff" fill-rule="evenodd" d="M306.861 795.71C307.632 793.707 319.849 794.187 319.856 796.193C319.86 798.197 315.048 806.851 312.246 806.004C309.442 805.157 305.521 799.188 306.861 795.71Z" clip-rule="evenodd"/><path fill="#fff" fill-rule="evenodd" d="M322.063 829.616L318.932 817.523C322.632 817.807 322.063 829.616 322.063 829.616ZM326.58 807.563C325.193 805.286 319.88 802.063 318.741 804.527C317.604 806.994 315.787 812.692 314.378 812.495C312.235 812.198 309.065 808.619 308.496 810.651C307.927 812.684 308.628 815.341 309.511 815.91C310.394 816.48 312.86 814.582 313.24 815.91C313.619 817.237 320.261 842.469 323.295 841.9C326.332 841.331 324.244 821.601 322.157 813.824C322.537 808.89 327.968 809.839 326.58 807.563Z" clip-rule="evenodd"/><path fill="#CCC" fill-rule="evenodd" d="M372.216 794.814C371.117 795.707 373.409 798.848 375.385 801.135C375.95 798.905 374.785 796.305 374.785 796.305C374.785 796.305 376.98 796.742 379.758 797.056C377.22 795.697 373.352 793.889 372.216 794.814Z" clip-rule="evenodd"/><path fill="#fff" fill-rule="evenodd" d="M372.585 795.819C370.096 794.427 380.55 788.449 393.353 790.278C406.154 792.106 419.144 793.914 417.969 797.097C416.794 800.282 413.861 799.652 412.332 799.63C410.801 799.608 374.009 796.617 372.585 795.819Z" clip-rule="evenodd"/><g clip-path="url(#clip1_0_7638)"><rect width="82" height="27" x="333.5" y="762" fill="#F6F7FB" stroke="#EEF0F6" rx="13.5"/><path fill="#FCBD11" d="M343.045 779C342.964 779 342.898 778.974 342.847 778.923C342.796 778.872 342.77 778.806 342.77 778.725V771.575C342.77 771.494 342.796 771.428 342.847 771.377C342.898 771.326 342.964 771.3 343.045 771.3H348.182C348.263 771.3 348.329 771.326 348.38 771.377C348.431 771.428 348.457 771.494 348.457 771.575V772.609C348.457 772.69 348.431 772.756 348.38 772.807C348.329 772.858 348.263 772.884 348.182 772.884H344.673V774.369H347.94C348.021 774.369 348.087 774.398 348.138 774.457C348.189 774.508 348.215 774.574 348.215 774.655V775.612C348.215 775.685 348.189 775.751 348.138 775.81C348.087 775.861 348.021 775.887 347.94 775.887H344.673V777.416H348.27C348.351 777.416 348.417 777.442 348.468 777.493C348.519 777.544 348.545 777.61 348.545 777.691V778.725C348.545 778.806 348.519 778.872 348.468 778.923C348.417 778.974 348.351 779 348.27 779H343.045ZM349.949 779C349.869 779 349.803 778.974 349.751 778.923C349.7 778.872 349.674 778.806 349.674 778.725V773.555C349.674 773.474 349.7 773.408 349.751 773.357C349.803 773.306 349.869 773.28 349.949 773.28H351.214C351.295 773.28 351.361 773.306 351.412 773.357C351.464 773.408 351.489 773.474 351.489 773.555V773.973C351.68 773.746 351.929 773.555 352.237 773.401C352.545 773.247 352.908 773.17 353.326 773.17C353.752 773.17 354.126 773.265 354.448 773.456C354.778 773.647 355.035 773.929 355.218 774.303C355.409 774.67 355.504 775.121 355.504 775.656V778.725C355.504 778.806 355.475 778.872 355.416 778.923C355.365 778.974 355.303 779 355.229 779H353.843C353.77 779 353.704 778.974 353.645 778.923C353.594 778.872 353.568 778.806 353.568 778.725V775.722C353.568 775.377 353.484 775.113 353.315 774.93C353.154 774.739 352.912 774.644 352.589 774.644C352.289 774.644 352.047 774.739 351.863 774.93C351.687 775.113 351.599 775.377 351.599 775.722V778.725C351.599 778.806 351.57 778.872 351.511 778.923C351.46 778.974 351.398 779 351.324 779H349.949ZM359.604 779C359.135 779 358.728 778.927 358.383 778.78C358.046 778.626 357.786 778.391 357.602 778.076C357.419 777.753 357.327 777.339 357.327 776.833V774.721H356.469C356.389 774.721 356.319 774.695 356.26 774.644C356.209 774.593 356.183 774.527 356.183 774.446V773.555C356.183 773.474 356.209 773.408 356.26 773.357C356.319 773.306 356.389 773.28 356.469 773.28H357.327V771.465C357.327 771.384 357.353 771.318 357.404 771.267C357.463 771.216 357.529 771.19 357.602 771.19H358.878C358.959 771.19 359.025 771.216 359.076 771.267C359.128 771.318 359.153 771.384 359.153 771.465V773.28H360.528C360.609 773.28 360.675 773.306 360.726 773.357C360.778 773.408 360.803 773.474 360.803 773.555V774.446C360.803 774.527 360.778 774.593 360.726 774.644C360.675 774.695 360.609 774.721 360.528 774.721H359.153V776.679C359.153 776.928 359.201 777.126 359.296 777.273C359.392 777.42 359.553 777.493 359.78 777.493H360.627C360.708 777.493 360.774 777.519 360.825 777.57C360.877 777.621 360.902 777.687 360.902 777.768V778.725C360.902 778.806 360.877 778.872 360.825 778.923C360.774 778.974 360.708 779 360.627 779H359.604ZM362.088 779C362.007 779 361.941 778.974 361.89 778.923C361.839 778.872 361.813 778.806 361.813 778.725V773.555C361.813 773.482 361.839 773.419 361.89 773.368C361.941 773.309 362.007 773.28 362.088 773.28H363.353C363.434 773.28 363.5 773.309 363.551 773.368C363.602 773.419 363.628 773.482 363.628 773.555V773.995C363.826 773.768 364.061 773.592 364.332 773.467C364.611 773.342 364.922 773.28 365.267 773.28H365.751C365.824 773.28 365.887 773.306 365.938 773.357C365.997 773.408 366.026 773.474 366.026 773.555V774.688C366.026 774.761 365.997 774.827 365.938 774.886C365.887 774.937 365.824 774.963 365.751 774.963H364.684C364.383 774.963 364.149 775.047 363.98 775.216C363.819 775.377 363.738 775.608 363.738 775.909V778.725C363.738 778.806 363.709 778.872 363.65 778.923C363.599 778.974 363.533 779 363.452 779H362.088ZM367.875 781.09C367.809 781.09 367.754 781.068 367.71 781.024C367.666 780.98 367.644 780.925 367.644 780.859C367.644 780.844 367.644 780.822 367.644 780.793C367.652 780.771 367.663 780.745 367.677 780.716L368.535 778.648L366.423 773.654C366.401 773.603 366.39 773.559 366.39 773.522C366.405 773.456 366.434 773.401 366.478 773.357C366.522 773.306 366.577 773.28 366.643 773.28H367.897C367.993 773.28 368.062 773.306 368.106 773.357C368.158 773.401 368.191 773.452 368.205 773.511L369.47 776.712L370.757 773.511C370.787 773.452 370.823 773.401 370.867 773.357C370.919 773.306 370.992 773.28 371.087 773.28H372.319C372.385 773.28 372.44 773.306 372.484 773.357C372.536 773.401 372.561 773.452 372.561 773.511C372.561 773.548 372.55 773.595 372.528 773.654L369.415 780.859C369.393 780.918 369.357 780.969 369.305 781.013C369.254 781.064 369.181 781.09 369.085 781.09H367.875Z"/></g></g></g><rect width="49" height="49" x="349.5" y="689.5" fill="#F6F7FB" stroke="#EEF0F6" rx="24.5"/><path fill="#E95847" fill-rule="evenodd" d="M371.801 699.18C370.826 698.073 369 698.763 369 700.238V727.821C369 729.289 370.811 729.982 371.791 728.889L384.05 715.226C384.592 714.623 384.596 713.709 384.06 713.1L371.801 699.18Z" clip-rule="evenodd"/><rect width="82" height="27" x="333.5" y="622.5" fill="#F6F7FB" stroke="#EEF0F6" rx="13.5"/><path fill="#4A6495" d="M351.235 640C351.14 640 351.062 639.97 351.001 639.909C350.94 639.848 350.91 639.77 350.91 639.675V631.225C350.91 631.13 350.94 631.052 351.001 630.991C351.062 630.93 351.14 630.9 351.235 630.9H354.875C355.594 630.9 356.218 631.013 356.747 631.238C357.284 631.455 357.7 631.784 357.995 632.226C358.298 632.668 358.45 633.227 358.45 633.903C358.45 634.57 358.298 635.121 357.995 635.554C357.7 635.987 357.284 636.308 356.747 636.516C356.218 636.724 355.594 636.828 354.875 636.828H353.328V639.675C353.328 639.77 353.293 639.848 353.224 639.909C353.163 639.97 353.085 640 352.99 640H351.235ZM353.289 635.034H354.81C355.183 635.034 355.477 634.939 355.694 634.748C355.919 634.557 356.032 634.267 356.032 633.877C356.032 633.548 355.937 633.27 355.746 633.045C355.555 632.82 355.243 632.707 354.81 632.707H353.289V635.034ZM359.877 640C359.782 640 359.704 639.97 359.643 639.909C359.582 639.848 359.552 639.77 359.552 639.675V633.565C359.552 633.478 359.582 633.405 359.643 633.344C359.704 633.275 359.782 633.24 359.877 633.24H361.372C361.467 633.24 361.545 633.275 361.606 633.344C361.667 633.405 361.697 633.478 361.697 633.565V634.085C361.931 633.816 362.208 633.608 362.529 633.461C362.858 633.314 363.227 633.24 363.634 633.24H364.206C364.293 633.24 364.366 633.27 364.427 633.331C364.496 633.392 364.531 633.47 364.531 633.565V634.904C364.531 634.991 364.496 635.069 364.427 635.138C364.366 635.199 364.293 635.229 364.206 635.229H362.945C362.59 635.229 362.312 635.329 362.113 635.528C361.922 635.719 361.827 635.992 361.827 636.347V639.675C361.827 639.77 361.792 639.848 361.723 639.909C361.662 639.97 361.584 640 361.489 640H359.877ZM368.603 640.13C367.875 640.13 367.259 640.013 366.757 639.779C366.263 639.545 365.881 639.211 365.613 638.778C365.353 638.336 365.205 637.812 365.171 637.205C365.162 637.032 365.158 636.837 365.158 636.62C365.158 636.395 365.162 636.2 365.171 636.035C365.205 635.42 365.361 634.895 365.639 634.462C365.916 634.029 366.302 633.695 366.796 633.461C367.298 633.227 367.901 633.11 368.603 633.11C369.313 633.11 369.916 633.227 370.41 633.461C370.912 633.695 371.302 634.029 371.58 634.462C371.857 634.895 372.013 635.42 372.048 636.035C372.056 636.2 372.061 636.395 372.061 636.62C372.061 636.837 372.056 637.032 372.048 637.205C372.013 637.812 371.861 638.336 371.593 638.778C371.333 639.211 370.951 639.545 370.449 639.779C369.955 640.013 369.339 640.13 368.603 640.13ZM368.603 638.544C368.993 638.544 369.274 638.427 369.448 638.193C369.63 637.959 369.734 637.608 369.76 637.14C369.768 637.01 369.773 636.837 369.773 636.62C369.773 636.403 369.768 636.23 369.76 636.1C369.734 635.641 369.63 635.294 369.448 635.06C369.274 634.817 368.993 634.696 368.603 634.696C368.221 634.696 367.94 634.817 367.758 635.06C367.576 635.294 367.476 635.641 367.459 636.1C367.45 636.23 367.446 636.403 367.446 636.62C367.446 636.837 367.45 637.01 367.459 637.14C367.476 637.608 367.576 637.959 367.758 638.193C367.94 638.427 368.221 638.544 368.603 638.544Z"/><rect width="375" height="877" y="105" fill="url(#paint1_linear_0_7638)" opacity=".588"/><path fill="#F5F7FB" d="M0 -30H375V1006C375 1027.54 357.539 1045 336 1045H39C17.4609 1045 0 1027.54 0 1006V-30Z"/><g clip-path="url(#clip2_0_7638)"><path fill="#EA9975" d="M121.85 397C121.63 397 121.45 396.93 121.31 396.79C121.17 396.65 121.1 396.47 121.1 396.25V376.75C121.1 376.53 121.17 376.35 121.31 376.21C121.45 376.07 121.63 376 121.85 376H135.86C136.08 376 136.26 376.07 136.4 376.21C136.54 376.35 136.61 376.53 136.61 376.75V379.57C136.61 379.79 136.54 379.97 136.4 380.11C136.26 380.25 136.08 380.32 135.86 380.32H126.29V384.37H135.2C135.42 384.37 135.6 384.45 135.74 384.61C135.88 384.75 135.95 384.93 135.95 385.15V387.76C135.95 387.96 135.88 388.14 135.74 388.3C135.6 388.44 135.42 388.51 135.2 388.51H126.29V392.68H136.1C136.32 392.68 136.5 392.75 136.64 392.89C136.78 393.03 136.85 393.21 136.85 393.43V396.25C136.85 396.47 136.78 396.65 136.64 396.79C136.5 396.93 136.32 397 136.1 397H121.85ZM141.01 397C140.79 397 140.61 396.93 140.47 396.79C140.33 396.65 140.26 396.47 140.26 396.25V376.75C140.26 376.53 140.33 376.35 140.47 376.21C140.61 376.07 140.79 376 141.01 376H149.41C151.07 376 152.51 376.26 153.73 376.78C154.97 377.28 155.93 378.04 156.61 379.06C157.31 380.08 157.66 381.37 157.66 382.93C157.66 384.47 157.31 385.74 156.61 386.74C155.93 387.74 154.97 388.48 153.73 388.96C152.51 389.44 151.07 389.68 149.41 389.68H145.84V396.25C145.84 396.47 145.76 396.65 145.6 396.79C145.46 396.93 145.28 397 145.06 397H141.01ZM145.75 385.54H149.26C150.12 385.54 150.8 385.32 151.3 384.88C151.82 384.44 152.08 383.77 152.08 382.87C152.08 382.11 151.86 381.47 151.42 380.95C150.98 380.43 150.26 380.17 149.26 380.17H145.75V385.54ZM161.284 397C161.064 397 160.884 396.93 160.744 396.79C160.604 396.65 160.534 396.47 160.534 396.25V376.75C160.534 376.53 160.604 376.35 160.744 376.21C160.884 376.07 161.064 376 161.284 376H165.304C165.524 376 165.704 376.07 165.844 376.21C165.984 376.35 166.054 376.53 166.054 376.75V396.25C166.054 396.47 165.984 396.65 165.844 396.79C165.704 396.93 165.524 397 165.304 397H161.284ZM178.87 397.3C176.97 397.3 175.34 396.99 173.98 396.37C172.64 395.75 171.59 394.84 170.83 393.64C170.09 392.44 169.68 390.95 169.6 389.17C169.58 388.35 169.57 387.47 169.57 386.53C169.57 385.59 169.58 384.69 169.6 383.83C169.68 382.09 170.1 380.62 170.86 379.42C171.62 378.2 172.68 377.28 174.04 376.66C175.4 376.02 177.01 375.7 178.87 375.7C180.19 375.7 181.41 375.87 182.53 376.21C183.65 376.53 184.63 377.01 185.47 377.65C186.31 378.27 186.96 379.03 187.42 379.93C187.9 380.81 188.15 381.81 188.17 382.93C188.19 383.11 188.13 383.26 187.99 383.38C187.87 383.5 187.72 383.56 187.54 383.56H183.49C183.23 383.56 183.03 383.51 182.89 383.41C182.75 383.29 182.63 383.08 182.53 382.78C182.25 381.72 181.79 381 181.15 380.62C180.53 380.22 179.76 380.02 178.84 380.02C177.74 380.02 176.87 380.33 176.23 380.95C175.59 381.55 175.24 382.56 175.18 383.98C175.12 385.62 175.12 387.3 175.18 389.02C175.24 390.44 175.59 391.46 176.23 392.08C176.87 392.68 177.74 392.98 178.84 392.98C179.76 392.98 180.54 392.78 181.18 392.38C181.82 391.98 182.27 391.26 182.53 390.22C182.61 389.92 182.72 389.72 182.86 389.62C183.02 389.5 183.23 389.44 183.49 389.44H187.54C187.72 389.44 187.87 389.5 187.99 389.62C188.13 389.74 188.19 389.89 188.17 390.07C188.15 391.19 187.9 392.2 187.42 393.1C186.96 393.98 186.31 394.74 185.47 395.38C184.63 396 183.65 396.48 182.53 396.82C181.41 397.14 180.19 397.3 178.87 397.3ZM198.461 397C198.241 397 198.061 396.93 197.921 396.79C197.781 396.65 197.711 396.47 197.711 396.25V376.75C197.711 376.53 197.781 376.35 197.921 376.21C198.061 376.07 198.241 376 198.461 376H206.621C209.201 376 211.231 376.6 212.711 377.8C214.211 378.98 214.961 380.66 214.961 382.84C214.961 384.26 214.611 385.46 213.911 386.44C213.231 387.42 212.331 388.16 211.211 388.66L215.351 396.04C215.411 396.16 215.441 396.27 215.441 396.37C215.441 396.53 215.371 396.68 215.231 396.82C215.111 396.94 214.961 397 214.781 397H210.821C210.441 397 210.161 396.91 209.981 396.73C209.801 396.53 209.671 396.35 209.591 396.19L206.171 389.59H203.081V396.25C203.081 396.47 203.011 396.65 202.871 396.79C202.731 396.93 202.551 397 202.331 397H198.461ZM203.081 385.36H206.561C207.501 385.36 208.201 385.13 208.661 384.67C209.141 384.21 209.381 383.58 209.381 382.78C209.381 382 209.151 381.37 208.691 380.89C208.251 380.41 207.541 380.17 206.561 380.17H203.081V385.36ZM219.204 397C218.984 397 218.804 396.93 218.664 396.79C218.524 396.65 218.454 396.47 218.454 396.25V376.75C218.454 376.53 218.524 376.35 218.664 376.21C218.804 376.07 218.984 376 219.204 376H227.604C229.264 376 230.704 376.26 231.924 376.78C233.164 377.28 234.124 378.04 234.804 379.06C235.504 380.08 235.854 381.37 235.854 382.93C235.854 384.47 235.504 385.74 234.804 386.74C234.124 387.74 233.164 388.48 231.924 388.96C230.704 389.44 229.264 389.68 227.604 389.68H224.034V396.25C224.034 396.47 223.954 396.65 223.794 396.79C223.654 396.93 223.474 397 223.254 397H219.204ZM223.944 385.54H227.454C228.314 385.54 228.994 385.32 229.494 384.88C230.014 384.44 230.274 383.77 230.274 382.87C230.274 382.11 230.054 381.47 229.614 380.95C229.174 380.43 228.454 380.17 227.454 380.17H223.944V385.54ZM246.557 397.3C244.557 397.3 242.897 397.02 241.577 396.46C240.257 395.88 239.257 395.13 238.577 394.21C237.897 393.29 237.537 392.31 237.497 391.27C237.497 391.11 237.557 390.97 237.677 390.85C237.817 390.71 237.977 390.64 238.157 390.64H241.937C242.217 390.64 242.427 390.69 242.567 390.79C242.727 390.89 242.867 391.02 242.987 391.18C243.147 391.48 243.367 391.77 243.647 392.05C243.947 392.33 244.327 392.56 244.787 392.74C245.267 392.9 245.857 392.98 246.557 392.98C247.717 392.98 248.587 392.8 249.167 392.44C249.767 392.08 250.067 391.59 250.067 390.97C250.067 390.53 249.907 390.17 249.587 389.89C249.267 389.59 248.747 389.33 248.027 389.11C247.327 388.87 246.387 388.63 245.207 388.39C243.687 388.07 242.387 387.66 241.307 387.16C240.247 386.64 239.437 385.97 238.877 385.15C238.317 384.31 238.037 383.27 238.037 382.03C238.037 380.81 238.377 379.72 239.057 378.76C239.757 377.8 240.727 377.05 241.967 376.51C243.207 375.97 244.677 375.7 246.377 375.7C247.757 375.7 248.967 375.88 250.007 376.24C251.067 376.6 251.957 377.08 252.677 377.68C253.397 378.28 253.937 378.92 254.297 379.6C254.677 380.26 254.877 380.91 254.897 381.55C254.897 381.71 254.837 381.86 254.717 382C254.597 382.12 254.447 382.18 254.267 382.18H250.307C250.087 382.18 249.897 382.14 249.737 382.06C249.577 381.98 249.437 381.85 249.317 381.67C249.197 381.23 248.877 380.85 248.357 380.53C247.857 380.19 247.197 380.02 246.377 380.02C245.497 380.02 244.807 380.18 244.307 380.5C243.827 380.8 243.587 381.27 243.587 381.91C243.587 382.31 243.717 382.66 243.977 382.96C244.257 383.26 244.707 383.52 245.327 383.74C245.967 383.96 246.837 384.19 247.937 384.43C249.757 384.77 251.227 385.2 252.347 385.72C253.467 386.22 254.287 386.88 254.807 387.7C255.327 388.5 255.587 389.51 255.587 390.73C255.587 392.09 255.197 393.27 254.417 394.27C253.657 395.25 252.597 396 251.237 396.52C249.877 397.04 248.317 397.3 246.557 397.3Z"/><g filter="url(#filter1_f_0_7638)"><path fill="#EA9975" fill-rule="evenodd" d="M179.24 397.3C176.38 397.3 174.135 396.61 172.505 395.23C170.875 393.85 170.01 391.83 169.91 389.17C169.89 388.63 169.88 387.75 169.88 386.53C169.88 385.29 169.89 384.39 169.91 383.83C170.01 381.23 170.885 379.225 172.535 377.815C174.185 376.405 176.42 375.7 179.24 375.7C181.02 375.7 182.615 375.99 184.025 376.57C185.435 377.15 186.55 377.99 187.37 379.09C188.19 380.19 188.62 381.49 188.66 382.99C188.66 383.17 188.595 383.32 188.465 383.44C188.335 383.56 188.18 383.62 188 383.62H183.74C183.46 383.62 183.255 383.565 183.125 383.455C182.995 383.345 182.88 383.14 182.78 382.84C182.5 381.86 182.075 381.175 181.505 380.785C180.935 380.395 180.18 380.2 179.24 380.2C176.98 380.2 175.81 381.46 175.73 383.98C175.71 384.52 175.7 385.35 175.7 386.47C175.7 387.59 175.71 388.44 175.73 389.02C175.81 391.54 176.98 392.8 179.24 392.8C180.16 392.8 180.915 392.6 181.505 392.2C182.095 391.8 182.52 391.12 182.78 390.16C182.86 389.86 182.97 389.655 183.11 389.545C183.25 389.435 183.46 389.38 183.74 389.38H188C188.18 389.38 188.335 389.44 188.465 389.56C188.595 389.68 188.66 389.83 188.66 390.01C188.62 391.51 188.19 392.81 187.37 393.91C186.55 395.01 185.435 395.85 184.025 396.43C182.615 397.01 181.02 397.3 179.24 397.3ZM121.265 396.775C121.415 396.925 121.59 397 121.79 397H136.19C136.41 397 136.595 396.93 136.745 396.79C136.895 396.65 136.97 396.47 136.97 396.25V393.28C136.97 393.06 136.895 392.875 136.745 392.725C136.595 392.575 136.41 392.5 136.19 392.5H126.47V388.6H135.29C135.51 388.6 135.695 388.525 135.845 388.375C135.995 388.225 136.07 388.04 136.07 387.82V385.09C136.07 384.87 135.995 384.685 135.845 384.535C135.695 384.385 135.51 384.31 135.29 384.31H126.47V380.5H135.95C136.17 380.5 136.355 380.43 136.505 380.29C136.655 380.15 136.73 379.97 136.73 379.75V376.78C136.73 376.56 136.655 376.375 136.505 376.225C136.355 376.075 136.17 376 135.95 376H121.79C121.57 376 121.39 376.075 121.25 376.225C121.11 376.375 121.04 376.56 121.04 376.78V396.25C121.04 396.45 121.115 396.625 121.265 396.775ZM140.525 396.775C140.675 396.925 140.85 397 141.05 397H145.37C145.59 397 145.77 396.925 145.91 396.775C146.05 396.625 146.12 396.45 146.12 396.25V389.77H149.54C152.14 389.77 154.18 389.205 155.66 388.075C157.14 386.945 157.88 385.24 157.88 382.96C157.88 380.68 157.14 378.95 155.66 377.77C154.18 376.59 152.14 376 149.54 376H141.05C140.83 376 140.65 376.075 140.51 376.225C140.37 376.375 140.3 376.56 140.3 376.78V396.25C140.3 396.45 140.375 396.625 140.525 396.775ZM149.39 385.48C150.21 385.48 150.855 385.265 151.325 384.835C151.795 384.405 152.03 383.77 152.03 382.93C152.03 382.15 151.815 381.52 151.385 381.04C150.955 380.56 150.29 380.32 149.39 380.32H146.03V385.48H149.39ZM160.895 396.775C161.045 396.925 161.22 397 161.42 397H165.71C165.93 397 166.11 396.925 166.25 396.775C166.39 396.625 166.46 396.45 166.46 396.25V376.75C166.46 376.53 166.39 376.35 166.25 376.21C166.11 376.07 165.93 376 165.71 376H161.42C161.22 376 161.045 376.07 160.895 376.21C160.745 376.35 160.67 376.53 160.67 376.75V396.25C160.67 396.45 160.745 396.625 160.895 396.775ZM198.245 396.775C198.395 396.925 198.57 397 198.77 397H202.88C203.1 397 203.285 396.93 203.435 396.79C203.585 396.65 203.66 396.47 203.66 396.25V389.68H206.54L209.84 396.19C210.08 396.73 210.49 397 211.07 397H215.3C215.48 397 215.63 396.935 215.75 396.805C215.87 396.675 215.93 396.53 215.93 396.37C215.93 396.27 215.9 396.16 215.84 396.04L211.79 388.72C212.93 388.18 213.825 387.42 214.475 386.44C215.125 385.46 215.45 384.27 215.45 382.87C215.45 380.69 214.705 379 213.215 377.8C211.725 376.6 209.66 376 207.02 376H198.77C198.55 376 198.37 376.075 198.23 376.225C198.09 376.375 198.02 376.56 198.02 376.78V396.25C198.02 396.45 198.095 396.625 198.245 396.775ZM206.99 385.27C207.85 385.27 208.505 385.055 208.955 384.625C209.405 384.195 209.63 383.6 209.63 382.84C209.63 382.08 209.405 381.47 208.955 381.01C208.505 380.55 207.85 380.32 206.99 380.32H203.66V385.27H206.99ZM219.095 396.775C219.245 396.925 219.42 397 219.62 397H223.94C224.16 397 224.34 396.925 224.48 396.775C224.62 396.625 224.69 396.45 224.69 396.25V389.77H228.11C230.71 389.77 232.75 389.205 234.23 388.075C235.71 386.945 236.45 385.24 236.45 382.96C236.45 380.68 235.71 378.95 234.23 377.77C232.75 376.59 230.71 376 228.11 376H219.62C219.4 376 219.22 376.075 219.08 376.225C218.94 376.375 218.87 376.56 218.87 376.78V396.25C218.87 396.45 218.945 396.625 219.095 396.775ZM227.96 385.48C228.78 385.48 229.425 385.265 229.895 384.835C230.365 384.405 230.6 383.77 230.6 382.93C230.6 382.15 230.385 381.52 229.955 381.04C229.525 380.56 228.86 380.32 227.96 380.32H224.6V385.48H227.96ZM242.24 396.46C243.6 397.02 245.25 397.3 247.19 397.3C248.97 397.3 250.55 397.035 251.93 396.505C253.31 395.975 254.39 395.21 255.17 394.21C255.95 393.21 256.34 392.03 256.34 390.67C256.34 389.43 256.075 388.405 255.545 387.595C255.015 386.785 254.195 386.125 253.085 385.615C251.975 385.105 250.48 384.68 248.6 384.34C246.96 384 245.84 383.665 245.24 383.335C244.64 383.005 244.34 382.55 244.34 381.97C244.34 381.39 244.57 380.95 245.03 380.65C245.49 380.35 246.14 380.2 246.98 380.2C247.72 380.2 248.34 380.345 248.84 380.635C249.34 380.925 249.65 381.28 249.77 381.7C250.01 382.06 250.35 382.24 250.79 382.24H254.99C255.17 382.24 255.32 382.175 255.44 382.045C255.56 381.915 255.62 381.76 255.62 381.58C255.58 380.7 255.215 379.805 254.525 378.895C253.835 377.985 252.845 377.225 251.555 376.615C250.265 376.005 248.74 375.7 246.98 375.7C245.3 375.7 243.825 375.97 242.555 376.51C241.285 377.05 240.305 377.805 239.615 378.775C238.925 379.745 238.58 380.85 238.58 382.09C238.58 383.91 239.18 385.31 240.38 386.29C241.58 387.27 243.39 388 245.81 388.48C247.05 388.74 248 388.975 248.66 389.185C249.32 389.395 249.8 389.635 250.1 389.905C250.4 390.175 250.55 390.52 250.55 390.94C250.55 391.52 250.26 391.975 249.68 392.305C249.1 392.635 248.27 392.8 247.19 392.8C246.27 392.8 245.535 392.645 244.985 392.335C244.435 392.025 244.03 391.63 243.77 391.15C243.59 390.95 243.425 390.81 243.275 390.73C243.125 390.65 242.93 390.61 242.69 390.61H238.7C238.52 390.61 238.365 390.67 238.235 390.79C238.105 390.91 238.04 391.06 238.04 391.24C238.08 392.32 238.45 393.32 239.15 394.24C239.85 395.16 240.88 395.9 242.24 396.46Z" clip-rule="evenodd"/></g><mask id="mask14_0_7638" width="70" height="33" x="180" y="283" maskUnits="userSpaceOnUse" style="mask-type:alpha"><path fill="#fff" fill-rule="evenodd" d="M180.835 315.719V283.587H249.067V315.719H180.835Z" clip-rule="evenodd"/></mask><g mask="url(#mask14_0_7638)"><path fill="#EA9975" fill-rule="evenodd" d="M243.841 305.898L244.378 305.541C249.713 301.341 250.633 293.609 246.43 288.275C242.23 282.94 234.499 282.024 229.166 286.223L215.578 296.925L198.481 288.661C192.369 285.706 185.017 288.268 182.062 294.382C179.108 300.496 181.668 307.848 187.781 310.801H187.781C206.087 318.801 227.202 316.954 243.841 305.898Z" clip-rule="evenodd"/></g><path fill="#FBC399" fill-rule="evenodd" d="M266.734 270.208C267.407 247.42 249.483 228.402 226.696 227.73L214.683 227.117C191.896 226.447 172.882 244.372 172.211 267.162C171.539 289.949 189.462 308.966 212.249 309.639L224.261 310.25C247.049 310.922 266.064 292.994 266.734 270.208Z" clip-rule="evenodd"/><path fill="#FBC399" fill-rule="evenodd" d="M254.895 288.544L487.015 301.337C500.594 301.337 511.604 277.535 511.604 263.954C511.604 250.372 500.594 232.846 487.015 232.846L254.895 239.363C241.314 239.363 230.306 250.372 230.306 263.954C230.306 277.535 241.314 288.544 254.895 288.544Z" clip-rule="evenodd"/><path fill="#EA9975" fill-rule="evenodd" d="M204.918 300.527L216.929 301.138C231.02 301.553 243.66 294.852 251.419 284.292C253.646 281.261 257.278 279.591 261.033 279.804L479.683 292.226C493.262 292.226 504.27 261.906 504.27 248.325C504.27 244.603 503.42 241.088 501.94 237.926C507.805 242.421 511.604 255.993 511.604 263.954C511.604 277.535 500.594 301.337 487.015 301.337L265.965 288.779C263.516 288.64 261.19 289.825 259.828 291.866C252.197 303.309 239.024 310.685 224.261 310.25L212.249 309.639C197.585 309.206 184.946 301.171 177.97 289.429C185.05 296.046 194.469 300.219 204.918 300.527Z" clip-rule="evenodd"/><path fill="#FBC399" fill-rule="evenodd" d="M205.729 297.736C211.08 297.736 215.425 293.404 215.439 288.048C215.452 282.684 211.117 278.324 205.752 278.31L172.783 278.222H172.757C167.406 278.222 163.059 282.554 163.046 287.909C163.032 293.273 167.368 297.633 172.732 297.648L205.701 297.736H205.729Z" clip-rule="evenodd"/><path fill="#EA9975" fill-rule="evenodd" d="M172.732 293.523C172.732 293.523 211.08 297.736 205.729 297.736H205.701L172.732 297.648C167.367 297.633 163.032 293.272 163.046 287.909C163.048 287.208 163.127 286.526 163.269 285.868C164.214 290.233 168.084 293.51 172.732 293.523Z" clip-rule="evenodd"/><mask id="mask15_0_7638" width="55" height="21" x="159" y="261" maskUnits="userSpaceOnUse" style="mask-type:alpha"><path fill="#fff" fill-rule="evenodd" d="M159.349 281.085V261.571H213.569V281.085H159.349Z" clip-rule="evenodd"/></mask><g mask="url(#mask15_0_7638)"><path fill="#FBC399" fill-rule="evenodd" d="M203.858 281.085C209.209 281.085 213.554 276.753 213.568 271.396C213.581 266.032 209.244 261.672 203.881 261.659L169.085 261.571H169.061C163.708 261.571 159.363 265.903 159.348 271.259C159.336 276.624 163.673 280.983 169.036 280.997L203.832 281.085H203.858Z" clip-rule="evenodd"/></g><mask id="mask16_0_7638" width="46" height="13" x="159" y="269" maskUnits="userSpaceOnUse" style="mask-type:alpha"><path fill="#fff" fill-rule="evenodd" d="M159.349 281.085V269.432H204.349V281.085H159.349Z" clip-rule="evenodd"/></mask><g mask="url(#mask16_0_7638)"><path fill="#EA9975" fill-rule="evenodd" d="M169.036 277.281C169.036 277.281 209.209 281.085 203.858 281.085H203.832L169.036 280.997C163.673 280.983 159.336 276.624 159.348 271.259C159.35 270.634 159.416 270.024 159.531 269.432C160.399 273.894 164.318 277.269 169.036 277.281Z" clip-rule="evenodd"/></g><path fill="#FBC399" fill-rule="evenodd" d="M170.26 263.451H170.285L204.817 263.362C210.181 263.347 214.517 258.987 214.504 253.623C214.489 248.267 210.143 243.936 204.793 243.936H204.766L170.236 244.025C164.872 244.04 160.534 248.4 160.549 253.764C160.563 259.12 164.908 263.451 170.26 263.451Z" clip-rule="evenodd"/><path fill="#EA9975" fill-rule="evenodd" d="M170.26 259.911H170.285C170.285 259.911 210.181 263.347 204.817 263.362L170.285 263.451H170.26C164.908 263.451 160.563 259.12 160.549 253.764C160.547 253.148 160.609 252.548 160.717 251.963C161.548 256.485 165.504 259.911 170.26 259.911Z" clip-rule="evenodd"/><path fill="#FBC399" fill-rule="evenodd" d="M175.312 246.614H175.337L209.867 246.524C215.231 246.509 219.569 242.15 219.554 236.786C219.539 231.43 215.195 227.098 209.843 227.098H209.818L175.286 227.188C169.922 227.202 165.586 231.562 165.599 236.926C165.613 242.282 169.96 246.614 175.312 246.614Z" clip-rule="evenodd"/><path fill="#EA9975" fill-rule="evenodd" d="M175.312 243.074H175.337C175.337 243.074 215.231 246.509 209.867 246.524L175.337 246.614H175.312C169.96 246.614 165.613 242.282 165.599 236.926C165.597 236.311 165.659 235.71 165.769 235.125C166.6 239.648 170.554 243.074 175.312 243.074Z" clip-rule="evenodd"/><path stroke="#EA9975" stroke-linecap="round" stroke-width="1.449" d="M267.762 255.314L273.142 251.799"/><path stroke="#EA9975" stroke-linecap="round" stroke-width="1.449" d="M259.419 271.932L265.743 273.075"/><path stroke="#EA9975" stroke-linecap="round" stroke-width="1.449" d="M276.489 265.144L282.855 264.269"/><path stroke="#EA9975" stroke-linecap="round" stroke-width="1.449" d="M258.187 247.307L264.554 246.432"/><path stroke="#EA9975" stroke-linecap="round" stroke-width="1.449" d="M319.122 254.368L325.489 253.493"/><path stroke="#EA9975" stroke-linecap="round" stroke-width="1.449" d="M341.097 251.924L347.248 250.063"/><path stroke="#EA9975" stroke-linecap="round" stroke-width="1.449" d="M330.027 243.216L336.394 242.342"/><path stroke="#EA9975" stroke-linecap="round" stroke-width="1.449" d="M298.379 259.249L304.659 260.613"/><path stroke="#EA9975" stroke-linecap="round" stroke-width="1.449" d="M331.3 264.302L337.58 265.667"/><path stroke="#EA9975" stroke-linecap="round" stroke-width="1.449" d="M369.536 274.178L375.816 275.543"/><path stroke="#EA9975" stroke-linecap="round" stroke-width="1.449" d="M353.536 260.719L359.929 260.069"/><path stroke="#EA9975" stroke-linecap="round" stroke-width="1.449" d="M284.112 274.749L289.44 278.341"/><path stroke="#EA9975" stroke-linecap="round" stroke-width="1.449" d="M275.079 283.281L280.408 286.873"/><path stroke="#EA9975" stroke-linecap="round" stroke-width="1.449" d="M314.938 272.862L320.871 275.332"/><path stroke="#EA9975" stroke-linecap="round" stroke-width="1.449" d="M335.137 277.232L340.832 280.21"/><path stroke="#EA9975" stroke-linecap="round" stroke-width="1.449" d="M298.627 271.893L303.956 275.486"/><path stroke="#EA9975" stroke-linecap="round" stroke-width="1.449" d="M351.745 274.884L357.074 278.477"/><path stroke="#EA9975" stroke-linecap="round" stroke-width="1.449" d="M355.602 288.249L360.931 291.841"/><path stroke="#EA9975" stroke-linecap="round" stroke-width="1.449" d="M299.537 284.846L303.037 290.236"/><path stroke="#EA9975" stroke-linecap="round" stroke-width="1.449" d="M286.569 249.571L292.242 246.551"/><path stroke="#EA9975" stroke-linecap="round" stroke-width="1.449" d="M307.691 247.933L313.364 244.912"/><path stroke="#EA9975" stroke-linecap="round" stroke-width="1.449" d="M361.605 248.379L367.278 245.359"/><path fill="#FBC399" d="M119.85 396C119.63 396 119.45 395.93 119.31 395.79C119.17 395.65 119.1 395.47 119.1 395.25V375.75C119.1 375.53 119.17 375.35 119.31 375.21C119.45 375.07 119.63 375 119.85 375H133.86C134.08 375 134.26 375.07 134.4 375.21C134.54 375.35 134.61 375.53 134.61 375.75V378.57C134.61 378.79 134.54 378.97 134.4 379.11C134.26 379.25 134.08 379.32 133.86 379.32H124.29V383.37H133.2C133.42 383.37 133.6 383.45 133.74 383.61C133.88 383.75 133.95 383.93 133.95 384.15V386.76C133.95 386.96 133.88 387.14 133.74 387.3C133.6 387.44 133.42 387.51 133.2 387.51H124.29V391.68H134.1C134.32 391.68 134.5 391.75 134.64 391.89C134.78 392.03 134.85 392.21 134.85 392.43V395.25C134.85 395.47 134.78 395.65 134.64 395.79C134.5 395.93 134.32 396 134.1 396H119.85ZM139.01 396C138.79 396 138.61 395.93 138.47 395.79C138.33 395.65 138.26 395.47 138.26 395.25V375.75C138.26 375.53 138.33 375.35 138.47 375.21C138.61 375.07 138.79 375 139.01 375H147.41C149.07 375 150.51 375.26 151.73 375.78C152.97 376.28 153.93 377.04 154.61 378.06C155.31 379.08 155.66 380.37 155.66 381.93C155.66 383.47 155.31 384.74 154.61 385.74C153.93 386.74 152.97 387.48 151.73 387.96C150.51 388.44 149.07 388.68 147.41 388.68H143.84V395.25C143.84 395.47 143.76 395.65 143.6 395.79C143.46 395.93 143.28 396 143.06 396H139.01ZM143.75 384.54H147.26C148.12 384.54 148.8 384.32 149.3 383.88C149.82 383.44 150.08 382.77 150.08 381.87C150.08 381.11 149.86 380.47 149.42 379.95C148.98 379.43 148.26 379.17 147.26 379.17H143.75V384.54ZM159.284 396C159.064 396 158.884 395.93 158.744 395.79C158.604 395.65 158.534 395.47 158.534 395.25V375.75C158.534 375.53 158.604 375.35 158.744 375.21C158.884 375.07 159.064 375 159.284 375H163.304C163.524 375 163.704 375.07 163.844 375.21C163.984 375.35 164.054 375.53 164.054 375.75V395.25C164.054 395.47 163.984 395.65 163.844 395.79C163.704 395.93 163.524 396 163.304 396H159.284ZM176.87 396.3C174.97 396.3 173.34 395.99 171.98 395.37C170.64 394.75 169.59 393.84 168.83 392.64C168.09 391.44 167.68 389.95 167.6 388.17C167.58 387.35 167.57 386.47 167.57 385.53C167.57 384.59 167.58 383.69 167.6 382.83C167.68 381.09 168.1 379.62 168.86 378.42C169.62 377.2 170.68 376.28 172.04 375.66C173.4 375.02 175.01 374.7 176.87 374.7C178.19 374.7 179.41 374.87 180.53 375.21C181.65 375.53 182.63 376.01 183.47 376.65C184.31 377.27 184.96 378.03 185.42 378.93C185.9 379.81 186.15 380.81 186.17 381.93C186.19 382.11 186.13 382.26 185.99 382.38C185.87 382.5 185.72 382.56 185.54 382.56H181.49C181.23 382.56 181.03 382.51 180.89 382.41C180.75 382.29 180.63 382.08 180.53 381.78C180.25 380.72 179.79 380 179.15 379.62C178.53 379.22 177.76 379.02 176.84 379.02C175.74 379.02 174.87 379.33 174.23 379.95C173.59 380.55 173.24 381.56 173.18 382.98C173.12 384.62 173.12 386.3 173.18 388.02C173.24 389.44 173.59 390.46 174.23 391.08C174.87 391.68 175.74 391.98 176.84 391.98C177.76 391.98 178.54 391.78 179.18 391.38C179.82 390.98 180.27 390.26 180.53 389.22C180.61 388.92 180.72 388.72 180.86 388.62C181.02 388.5 181.23 388.44 181.49 388.44H185.54C185.72 388.44 185.87 388.5 185.99 388.62C186.13 388.74 186.19 388.89 186.17 389.07C186.15 390.19 185.9 391.2 185.42 392.1C184.96 392.98 184.31 393.74 183.47 394.38C182.63 395 181.65 395.48 180.53 395.82C179.41 396.14 178.19 396.3 176.87 396.3ZM196.461 396C196.241 396 196.061 395.93 195.921 395.79C195.781 395.65 195.711 395.47 195.711 395.25V375.75C195.711 375.53 195.781 375.35 195.921 375.21C196.061 375.07 196.241 375 196.461 375H204.621C207.201 375 209.231 375.6 210.711 376.8C212.211 377.98 212.961 379.66 212.961 381.84C212.961 383.26 212.611 384.46 211.911 385.44C211.231 386.42 210.331 387.16 209.211 387.66L213.351 395.04C213.411 395.16 213.441 395.27 213.441 395.37C213.441 395.53 213.371 395.68 213.231 395.82C213.111 395.94 212.961 396 212.781 396H208.821C208.441 396 208.161 395.91 207.981 395.73C207.801 395.53 207.671 395.35 207.591 395.19L204.171 388.59H201.081V395.25C201.081 395.47 201.011 395.65 200.871 395.79C200.731 395.93 200.551 396 200.331 396H196.461ZM201.081 384.36H204.561C205.501 384.36 206.201 384.13 206.661 383.67C207.141 383.21 207.381 382.58 207.381 381.78C207.381 381 207.151 380.37 206.691 379.89C206.251 379.41 205.541 379.17 204.561 379.17H201.081V384.36ZM217.204 396C216.984 396 216.804 395.93 216.664 395.79C216.524 395.65 216.454 395.47 216.454 395.25V375.75C216.454 375.53 216.524 375.35 216.664 375.21C216.804 375.07 216.984 375 217.204 375H225.604C227.264 375 228.704 375.26 229.924 375.78C231.164 376.28 232.124 377.04 232.804 378.06C233.504 379.08 233.854 380.37 233.854 381.93C233.854 383.47 233.504 384.74 232.804 385.74C232.124 386.74 231.164 387.48 229.924 387.96C228.704 388.44 227.264 388.68 225.604 388.68H222.034V395.25C222.034 395.47 221.954 395.65 221.794 395.79C221.654 395.93 221.474 396 221.254 396H217.204ZM221.944 384.54H225.454C226.314 384.54 226.994 384.32 227.494 383.88C228.014 383.44 228.274 382.77 228.274 381.87C228.274 381.11 228.054 380.47 227.614 379.95C227.174 379.43 226.454 379.17 225.454 379.17H221.944V384.54ZM244.557 396.3C242.557 396.3 240.897 396.02 239.577 395.46C238.257 394.88 237.257 394.13 236.577 393.21C235.897 392.29 235.537 391.31 235.497 390.27C235.497 390.11 235.557 389.97 235.677 389.85C235.817 389.71 235.977 389.64 236.157 389.64H239.937C240.217 389.64 240.427 389.69 240.567 389.79C240.727 389.89 240.867 390.02 240.987 390.18C241.147 390.48 241.367 390.77 241.647 391.05C241.947 391.33 242.327 391.56 242.787 391.74C243.267 391.9 243.857 391.98 244.557 391.98C245.717 391.98 246.587 391.8 247.167 391.44C247.767 391.08 248.067 390.59 248.067 389.97C248.067 389.53 247.907 389.17 247.587 388.89C247.267 388.59 246.747 388.33 246.027 388.11C245.327 387.87 244.387 387.63 243.207 387.39C241.687 387.07 240.387 386.66 239.307 386.16C238.247 385.64 237.437 384.97 236.877 384.15C236.317 383.31 236.037 382.27 236.037 381.03C236.037 379.81 236.377 378.72 237.057 377.76C237.757 376.8 238.727 376.05 239.967 375.51C241.207 374.97 242.677 374.7 244.377 374.7C245.757 374.7 246.967 374.88 248.007 375.24C249.067 375.6 249.957 376.08 250.677 376.68C251.397 377.28 251.937 377.92 252.297 378.6C252.677 379.26 252.877 379.91 252.897 380.55C252.897 380.71 252.837 380.86 252.717 381C252.597 381.12 252.447 381.18 252.267 381.18H248.307C248.087 381.18 247.897 381.14 247.737 381.06C247.577 380.98 247.437 380.85 247.317 380.67C247.197 380.23 246.877 379.85 246.357 379.53C245.857 379.19 245.197 379.02 244.377 379.02C243.497 379.02 242.807 379.18 242.307 379.5C241.827 379.8 241.587 380.27 241.587 380.91C241.587 381.31 241.717 381.66 241.977 381.96C242.257 382.26 242.707 382.52 243.327 382.74C243.967 382.96 244.837 383.19 245.937 383.43C247.757 383.77 249.227 384.2 250.347 384.72C251.467 385.22 252.287 385.88 252.807 386.7C253.327 387.5 253.587 388.51 253.587 389.73C253.587 391.09 253.197 392.27 252.417 393.27C251.657 394.25 250.597 395 249.237 395.52C247.877 396.04 246.317 396.3 244.557 396.3Z"/><mask id="mask17_0_7638" width="66" height="33" x="92" y="450" maskUnits="userSpaceOnUse" style="mask-type:alpha"><path fill="#fff" fill-rule="evenodd" d="M156.942 450.438L157.993 480.525L93.8503 482.765L92.7996 452.678L156.942 450.438Z" clip-rule="evenodd"/></mask><g mask="url(#mask17_0_7638)"><path fill="#F2BCA7" fill-rule="evenodd" d="M98.0334 461.702L97.54 462.054C92.6624 466.162 92.0512 473.432 96.1759 478.289C100.299 483.146 107.596 483.751 112.472 479.644L124.896 469.176L141.239 476.353C147.081 478.92 153.908 476.28 156.486 470.458C159.063 464.635 156.416 457.836 150.573 455.271L150.573 455.271C133.103 448.382 113.314 450.804 98.0334 461.702" clip-rule="evenodd"/></g><path fill="#FCD9C3" fill-rule="evenodd" d="M77.6796 495.872C77.7926 517.23 95.2638 534.449 116.707 534.331L128.02 534.511C149.463 534.39 166.751 516.982 166.637 495.621C166.524 474.262 149.053 457.044 127.609 457.162L116.298 456.984C94.8533 457.103 77.5648 474.514 77.6796 495.872" clip-rule="evenodd"/><mask id="mask18_0_7638" width="268" height="74" x="-154" y="465" maskUnits="userSpaceOnUse" style="mask-type:alpha"><path fill="#fff" fill-rule="evenodd" d="M110.906 465.526L113.145 529.657L-151.29 538.892L-153.529 474.76L110.906 465.526Z" clip-rule="evenodd"/></mask><g mask="url(#mask18_0_7638)"><path fill="#FCD9C3" fill-rule="evenodd" d="M88.2091 478.312L-130.415 473.953C-143.18 474.399 -152.751 497.047 -152.307 509.764C-151.863 522.481 -140.94 538.53 -128.175 538.085L89.8172 524.362C102.584 523.916 112.572 513.247 112.128 500.53C111.684 487.813 100.976 477.866 88.2091 478.312" clip-rule="evenodd"/></g><mask id="mask19_0_7638" width="284" height="79" x="-154" y="456" maskUnits="userSpaceOnUse" style="mask-type:alpha"><path fill="#fff" fill-rule="evenodd" d="M127.582 456.395L129.954 524.311L-151.456 534.138L-153.828 466.222L127.582 456.395Z" clip-rule="evenodd"/></mask><g mask="url(#mask19_0_7638)"><path fill="#F2BCA7" fill-rule="evenodd" d="M85.6013 481.224C83.986 484.36 80.247 485.818 76.7104 485.742L-123.224 482.247C-135.989 482.693 -145.346 511.444 -144.902 524.161C-144.78 527.646 -143.867 530.909 -142.372 533.821C-148.032 529.805 -152.047 517.221 -152.307 509.767C-152.751 497.051 -143.18 474.402 -130.415 473.956L77.7954 478.458C80.1028 478.508 82.2503 477.323 83.4632 475.366C90.2633 464.401 102.173 454.467 127.609 457.164C127.609 457.164 99.4368 454.363 85.6013 481.224" clip-rule="evenodd"/></g><path fill="#FCD9C3" fill-rule="evenodd" d="M138.169 466.635C133.194 467.405 129.781 472.042 130.54 477.003C131.302 481.971 135.963 485.383 140.95 484.623L173.305 479.694C173.312 479.693 215.255 473.195 215.262 473.195C220.238 472.424 223.651 467.787 222.892 462.827C222.13 457.858 217.47 454.447 212.483 455.206L138.192 466.631C138.186 466.632 138.177 466.634 138.169 466.635" clip-rule="evenodd"/><path fill="#F2BCA7" fill-rule="evenodd" d="M213.019 458.647C213.019 458.647 133.194 467.405 138.168 466.635C138.177 466.633 138.186 466.632 138.192 466.631L212.483 455.207C217.469 454.447 222.13 457.858 222.892 462.827C222.98 463.405 223.007 463.98 222.986 464.545C221.535 460.539 217.406 457.979 213.019 458.647" clip-rule="evenodd"/><path fill="#FCD9C3" fill-rule="evenodd" d="M168.592 499.03L168.568 499.031L136.109 500.249C131.067 500.439 127.134 504.663 127.322 509.685C127.51 514.7 131.738 518.613 136.767 518.437L136.793 518.436L169.25 517.219C174.292 517.029 178.227 512.804 178.038 507.782C177.849 502.768 173.623 498.855 168.592 499.03" clip-rule="evenodd"/><path fill="#F2BCA7" fill-rule="evenodd" d="M168.742 504.41C168.733 504.408 168.75 504.41 168.742 504.41C168.742 504.41 150.412 501.603 143.505 501.18L142.992 499.925L168.568 499.032L168.592 499.031C173.623 498.855 177.862 502.768 178.038 507.782C178.126 510.315 177.508 510.864 177.426 511.415C176.497 507.208 173.203 505.446 168.742 504.41" clip-rule="evenodd"/><path fill="#FCD9C3" fill-rule="evenodd" d="M144.289 482.995C139.26 482.788 135.007 486.675 134.784 491.689C134.562 496.71 138.467 500.959 143.507 501.18L176.205 502.61C176.212 502.61 218.621 504.358 218.628 504.358C223.659 504.566 227.912 500.678 228.135 495.665C228.357 490.644 224.451 486.395 219.412 486.175L144.313 482.996C144.306 482.996 144.298 482.995 144.289 482.995" clip-rule="evenodd"/><path fill="#FCD9C3" fill-rule="evenodd" d="M164.393 514.962L164.369 514.963L131.912 516.18C126.87 516.37 122.935 520.595 123.124 525.617C123.313 530.631 127.539 534.544 132.57 534.369L132.594 534.368L165.052 533.151C170.095 532.961 174.028 528.736 173.841 523.714C173.652 518.7 169.424 514.786 164.393 514.962" clip-rule="evenodd"/><path fill="#F2BCA7" fill-rule="evenodd" d="M164.509 518.276L164.485 518.277C164.485 518.277 135.945 516.053 140.988 515.863L164.369 514.963L164.393 514.962C169.424 514.786 173.652 518.7 173.841 523.714C173.862 524.29 173.824 524.854 173.74 525.406C172.81 521.198 168.982 518.12 164.509 518.276" clip-rule="evenodd"/><path fill="#F2BCA7" fill-rule="evenodd" d="M219.267 489.653C219.267 489.653 164.693 483.859 164.7 483.859L219.412 486.175C224.451 486.395 228.357 490.644 228.135 495.665C228.109 496.25 228.023 496.819 227.892 497.369C227.251 493.158 223.7 489.847 219.267 489.653" clip-rule="evenodd"/><path fill="#CE4EAA" fill-rule="evenodd" d="M221.98 468.424L211.824 470.275C210.712 470.484 209.563 470.372 208.512 469.954C205.361 468.702 203.967 465.152 205.207 462.173C205.434 461.625 205.764 461.126 206.146 460.672C207.3 459.295 208.927 458.394 210.711 458.145L219.124 456.715L219.722 457.092C223.592 459.529 224.622 464.698 221.98 468.424" clip-rule="evenodd"/><path fill="#CE4EAA" fill-rule="evenodd" d="M225.761 501.118L215.446 500.699C214.314 500.659 213.218 500.298 212.285 499.661C209.488 497.749 208.912 493.98 210.779 491.345C211.122 490.861 211.554 490.447 212.026 490.087C213.456 488.996 215.242 488.474 217.037 488.622L225.559 489.069L226.059 489.568C229.296 492.793 229.16 498.061 225.761 501.118" clip-rule="evenodd"/><path stroke="#FFB600" stroke-width="1.71" d="M69.6728 479.083C56.7433 455.715 70.5574 545.896 83.5916 535.282C85.5293 533.704 85.0527 526.384 84.335 523.786"/><path stroke="#FFB600" stroke-width="1.71" d="M70.4686 526.751C71.9895 554.837 35.6438 469.75 52.3032 470.297C54.78 470.378 58.2746 476.869 59.0516 479.526"/><path fill="#CECECE" fill-rule="evenodd" d="M189.611 482.991L193.145 504.522L180.714 503.982L181.094 483.288L189.611 482.991Z" clip-rule="evenodd"/><path fill="#E5E5E5" fill-rule="evenodd" d="M181.083 483.982L180.737 502.794L170.007 502.336L172.959 483.2L181.083 483.982Z" clip-rule="evenodd"/><path fill="#E5E5E5" fill-rule="evenodd" d="M164.699 483.858L164.53 502.098L170.007 502.337L172.805 484.201L164.699 483.858Z" clip-rule="evenodd"/><path fill="#CECECE" fill-rule="evenodd" d="M169.369 484.055L168.986 502.293L170.007 502.338L172.805 484.201L169.369 484.055Z" clip-rule="evenodd"/><path fill="#E5E5E5" fill-rule="evenodd" d="M189.153 504.347L187.829 483.051L186.192 483.108L183.466 504.1L189.153 504.347Z" clip-rule="evenodd"/><path fill="#ED6464" fill-rule="evenodd" d="M116.698 472.011V472.011C109.612 477.973 104.318 485.771 101.402 494.543L99.5869 500.004L102.415 493.944C106.121 486.003 110.929 478.619 116.698 472.011" clip-rule="evenodd"/><path fill="#ED6464" fill-rule="evenodd" d="M112.913 483.317V483.317C108.735 489.877 106.491 496.139 106.429 501.41L106.39 504.692L107.092 500.576C108.012 495.182 109.972 489.372 112.913 483.317" clip-rule="evenodd"/><path fill="#FF1D1D" fill-rule="evenodd" d="M181.07 484.694C180.522 485.407 179.686 485.854 178.786 485.883C177.545 485.923 175.771 486.339 175.11 488.271L174.757 489.271C174.399 490.284 174.819 491.408 175.756 491.94C177.699 493.044 178.786 495.202 178.513 497.413C178.411 498.241 178.582 499.079 179.001 499.8L180.737 502.795L181.07 484.694Z" clip-rule="evenodd"/></g></g><defs><filter id="filter0_d_0_7638" width="259" height="304" x="245" y="601" color-interpolation-filters="sRGB" filterUnits="userSpaceOnUse"><feFlood flood-opacity="0" result="BackgroundImageFix"/><feColorMatrix in="SourceAlpha" result="hardAlpha" type="matrix" values="0 0 0 0 0 0 0 0 0 0 0 0 0 0 0 0 0 0 127 0"/><feOffset dy="32"/><feGaussianBlur stdDeviation="32"/><feColorMatrix type="matrix" values="0 0 0 0 0.690331 0 0 0 0 0.690331 0 0 0 0 0.690331 0 0 0 0.2 0"/><feBlend in2="BackgroundImageFix" mode="normal" result="effect1_dropShadow_0_7638"/><feBlend in="SourceGraphic" in2="effect1_dropShadow_0_7638" mode="normal" result="shape"/></filter><filter id="filter1_f_0_7638" width="331.016" height="217.316" x="23.182" y="277.842" color-interpolation-filters="sRGB" filterUnits="userSpaceOnUse"><feFlood flood-opacity="0" result="BackgroundImageFix"/><feBlend in="SourceGraphic" in2="BackgroundImageFix" mode="normal" result="shape"/><feGaussianBlur result="effect1_foregroundBlur_0_7638" stdDeviation="48.929"/></filter><linearGradient id="paint0_linear_0_7638" x1="18.128" x2="18.128" y1="89.383" y2="976.44" gradientUnits="userSpaceOnUse"><stop stop-color="#F5F8FA"/><stop offset="1" stop-color="#E3E7F0"/></linearGradient><linearGradient id="paint1_linear_0_7638" x1="18.128" x2="18.128" y1="184.826" y2="977.034" gradientUnits="userSpaceOnUse"><stop stop-color="#696E72"/><stop offset="1"/></linearGradient><clipPath id="clip0_0_7638"><rect width="375" height="812" fill="#fff"/></clipPath><clipPath id="clip1_0_7638"><rect width="83" height="28" fill="#fff" transform="translate(333 761.5)"/></clipPath><clipPath id="clip2_0_7638"><rect width="661" height="318" fill="#fff" transform="translate(-149 226)"/></clipPath></defs></svg>